M48
;GenerationSoftware,Autodesk,EAGLE,9.6.2*%
;CreationDate,2023-06-05T04:08:55Z*%
FMAT,2
ICI,OFF
METRIC,TZ,000.000
T4C0.200
T3C0.350
T2C0.600
T1C3.000
%
G90
M71
T1
X97000Y66500
X97000Y9500
X3000Y9500
X3000Y66500
T2
X77340Y17120
X45120Y58880
X79880Y17120
X82420Y17120
X84960Y17120
X87500Y17120
X90040Y17120
X92580Y17120
X95120Y17120
X97660Y17120
X97660Y1880
X95120Y1880
X92580Y1880
X90040Y1880
X87500Y1880
X84960Y1880
X82420Y1880
X79880Y1880
X77340Y1880
X52340Y17120
X54880Y17120
X57420Y17120
X59960Y17120
X62500Y17120
X65040Y17120
X67580Y17120
X70120Y17120
X72660Y17120
X72660Y1880
X70120Y1880
X67580Y1880
X65040Y1880
X62500Y1880
X59960Y1880
X57420Y1880
X54880Y1880
X52340Y1880
X77340Y36120
X79880Y36120
X82420Y36120
X84960Y36120
X87500Y36120
X90040Y36120
X92580Y36120
X95120Y36120
X97660Y36120
X97660Y20880
X95120Y20880
X92580Y20880
X90040Y20880
X87500Y20880
X84960Y20880
X82420Y20880
X79880Y20880
X77340Y20880
X52340Y36120
X54880Y36120
X57420Y36120
X59960Y36120
X62500Y36120
X65040Y36120
X67580Y36120
X70120Y36120
X72660Y36120
X72660Y20880
X70120Y20880
X67580Y20880
X65040Y20880
X62500Y20880
X59960Y20880
X57420Y20880
X54880Y20880
X52340Y20880
X77340Y55120
X79880Y55120
X82420Y55120
X84960Y55120
X87500Y55120
X90040Y55120
X92580Y55120
X95120Y55120
X97660Y55120
X97660Y39880
X95120Y39880
X92580Y39880
X90040Y39880
X87500Y39880
X84960Y39880
X82420Y39880
X79880Y39880
X77340Y39880
X52340Y55120
X54880Y55120
X57420Y55120
X59960Y55120
X62500Y55120
X65040Y55120
X67580Y55120
X70120Y55120
X72660Y55120
X72660Y39880
X70120Y39880
X67580Y39880
X65040Y39880
X62500Y39880
X59960Y39880
X57420Y39880
X54880Y39880
X52340Y39880
X77340Y74120
X79880Y74120
X82420Y74120
X84960Y74120
X87500Y74120
X90040Y74120
X92580Y74120
X95120Y74120
X97660Y74120
X97660Y58880
X95120Y58880
X92580Y58880
X90040Y58880
X87500Y58880
X84960Y58880
X82420Y58880
X79880Y58880
X77340Y58880
X52340Y74120
X54880Y74120
X57420Y74120
X37500Y58880
X2340Y58880
X4880Y58880
X7420Y58880
X9960Y58880
X12500Y58880
X15040Y58880
X17580Y58880
X20120Y58880
X22660Y58880
X22660Y74120
X20120Y74120
X17580Y74120
X15040Y74120
X12500Y74120
X9960Y74120
X7420Y74120
X4880Y74120
X2340Y74120
X2340Y39880
X4880Y39880
X7420Y39880
X9960Y39880
X12500Y39880
X15040Y39880
X17580Y39880
X20120Y39880
X22660Y39880
X22660Y55120
X20120Y55120
X17580Y55120
X15040Y55120
X12500Y55120
X9960Y55120
X7420Y55120
X4880Y55120
X2340Y55120
X2340Y20880
X4880Y20880
X7420Y20880
X9960Y20880
X12500Y20880
X15040Y20880
X17580Y20880
X20120Y20880
X22660Y20880
X22660Y36120
X20120Y36120
X17580Y36120
X15040Y36120
X12500Y36120
X9960Y36120
X7420Y36120
X4880Y36120
X2340Y36120
X2340Y1880
X4880Y1880
X7420Y1880
X9960Y1880
X12500Y1880
X15040Y1880
X17580Y1880
X20120Y1880
X22660Y1880
X22660Y17120
X20120Y17120
X17580Y17120
X15040Y17120
X12500Y17120
X9960Y17120
X7420Y17120
X4880Y17120
X2340Y17120
X27340Y58880
X29880Y58880
X32420Y58880
X34960Y58880
X59960Y74120
X40040Y58880
X42580Y58880
X62500Y74120
X47660Y58880
X47660Y74120
X45120Y74120
X42580Y74120
X40040Y74120
X37500Y74120
X34960Y74120
X32420Y74120
X29880Y74120
X27340Y74120
X27340Y39880
X29880Y39880
X32420Y39880
X34960Y39880
X37500Y39880
X40040Y39880
X42580Y39880
X45120Y39880
X47660Y39880
X47660Y55120
X45120Y55120
X42580Y55120
X40040Y55120
X37500Y55120
X34960Y55120
X32420Y55120
X29880Y55120
X27340Y55120
X27340Y20880
X29880Y20880
X32420Y20880
X34960Y20880
X37500Y20880
X40040Y20880
X42580Y20880
X45120Y20880
X47660Y20880
X47660Y36120
X45120Y36120
X42580Y36120
X40040Y36120
X37500Y36120
X34960Y36120
X32420Y36120
X29880Y36120
X27340Y36120
X27340Y1880
X29880Y1880
X32420Y1880
X34960Y1880
X37500Y1880
X40040Y1880
X42580Y1880
X45120Y1880
X47660Y1880
X47660Y17120
X45120Y17120
X42580Y17120
X40040Y17120
X37500Y17120
X34960Y17120
X32420Y17120
X29880Y17120
X27340Y17120
X52340Y58880
X54880Y58880
X57420Y58880
X59960Y58880
X62500Y58880
X65040Y58880
X67580Y58880
X70120Y58880
X72660Y58880
X72660Y74120
X70120Y74120
X67580Y74120
X65040Y74120
T3
X43700Y31875
X52000Y24050
X52105Y62055
X52155Y43055
X43700Y50800
X52650Y4200
X43700Y12725
X22150Y14400
X19100Y14400
X17400Y5050
X14500Y4000
X5081Y12806
X4975Y13950
X9000Y27350
X8950Y46400
X7500Y65500
X8900Y15050
X46150Y15450
X46000Y34000
X46000Y53000
X46000Y72000
X7000Y69000
X7000Y50000
X7000Y31000
X43750Y69875
T4
X54500Y45000
X38500Y46000
X54500Y46250
X48250Y43000
X51500Y55750
X47750Y47250
X54500Y51250
X16500Y56250
X35000Y49750
X54500Y64000
X45950Y60350
X54500Y65250
X48250Y62500
X54750Y69000
X73750Y60500
X47750Y66250
X54500Y70250
X49500Y72250
X5200Y62250
X5000Y43500
X4000Y25400
X8000Y12000
X3300Y60350
X3250Y41500
X2750Y22250
X7750Y6500
X36500Y4500
X20750Y34000
X47500Y27250
X44650Y12000
X25000Y67250
X25000Y48750
X33500Y48000
X33500Y66500
X15750Y46250
X12750Y29000
X12500Y11000
X41000Y9500
X2500Y47950
X2550Y14900
X21500Y25750
X45250Y31750
X42750Y8250
X24250Y61000
X24250Y43750
X19000Y64000
X18500Y45000
X39000Y8500
X12250Y25250
X11000Y9500
X50300Y23600
X48250Y7000
X44150Y60500
X45250Y49500
X24000Y23750
X22250Y11500
X7500Y71250
X2350Y28300
X7500Y47500
X12250Y32000
X27000Y12750
X35000Y4750
X49750Y13750
X38000Y12250
X38250Y7250
X54000Y72000
X62750Y7750
X45000Y5500
X36500Y10250
X74000Y41750
X75250Y12250
X63750Y10250
X27800Y7500
X27750Y10250
X35000Y12000
X64250Y72000
X40000Y13500
X99000Y34500
X88750Y14500
X56000Y12500
X48500Y13250
X41000Y14250
X18250Y68000
X17250Y53250
X13750Y51250
X12750Y34000
X24250Y33000
X52000Y33750
X25000Y36000
X54500Y32250
X59250Y29250
X54500Y31000
X54500Y28500
X48250Y26500
X47500Y24750
X54500Y26000
X16000Y18250
X47500Y12000
X36350Y17400
X25500Y12750
X52250Y7000
X54500Y7000
X52250Y6000
X45250Y30750
X44100Y41500
X13250Y9250
M30