G04 EAGLE Gerber RS-274X export*
G75*
%MOMM*%
%FSLAX34Y34*%
%LPD*%
%INBottom Copper*%
%IPPOS*%
%AMOC8*
5,1,8,0,0,1.08239X$1,22.5*%
G01*
%ADD10C,1.108000*%
%ADD11R,1.200000X0.600000*%
%ADD12R,3.200000X1.270000*%
%ADD13R,1.800000X0.650000*%
%ADD14R,0.798700X0.973900*%
%ADD15R,0.920900X0.970200*%
%ADD16C,0.762000*%
%ADD17C,0.610000*%
%ADD18C,0.203200*%
%ADD19C,0.460000*%


D10*
X23400Y588800D03*
X48800Y588800D03*
X74200Y588800D03*
X99600Y588800D03*
X125000Y588800D03*
X150400Y588800D03*
X175800Y588800D03*
X201200Y588800D03*
X226600Y588800D03*
X226600Y741200D03*
X201200Y741200D03*
X175800Y741200D03*
X150400Y741200D03*
X125000Y741200D03*
X99600Y741200D03*
X74200Y741200D03*
X48800Y741200D03*
X23400Y741200D03*
X23400Y398800D03*
X48800Y398800D03*
X74200Y398800D03*
X99600Y398800D03*
X125000Y398800D03*
X150400Y398800D03*
X175800Y398800D03*
X201200Y398800D03*
X226600Y398800D03*
X226600Y551200D03*
X201200Y551200D03*
X175800Y551200D03*
X150400Y551200D03*
X125000Y551200D03*
X99600Y551200D03*
X74200Y551200D03*
X48800Y551200D03*
X23400Y551200D03*
X23400Y208800D03*
X48800Y208800D03*
X74200Y208800D03*
X99600Y208800D03*
X125000Y208800D03*
X150400Y208800D03*
X175800Y208800D03*
X201200Y208800D03*
X226600Y208800D03*
X226600Y361200D03*
X201200Y361200D03*
X175800Y361200D03*
X150400Y361200D03*
X125000Y361200D03*
X99600Y361200D03*
X74200Y361200D03*
X48800Y361200D03*
X23400Y361200D03*
X23400Y18800D03*
X48800Y18800D03*
X74200Y18800D03*
X99600Y18800D03*
X125000Y18800D03*
X150400Y18800D03*
X175800Y18800D03*
X201200Y18800D03*
X226600Y18800D03*
X226600Y171200D03*
X201200Y171200D03*
X175800Y171200D03*
X150400Y171200D03*
X125000Y171200D03*
X99600Y171200D03*
X74200Y171200D03*
X48800Y171200D03*
X23400Y171200D03*
D11*
X534942Y519450D03*
X534942Y506750D03*
X534942Y494050D03*
X534942Y481350D03*
X534942Y468650D03*
X534942Y455950D03*
X534942Y443250D03*
X534942Y430550D03*
X465058Y430550D03*
X465058Y443250D03*
X465058Y455950D03*
X465058Y468650D03*
X465058Y481350D03*
X465058Y494050D03*
X465058Y506750D03*
X465058Y519450D03*
X534942Y329450D03*
X534942Y316750D03*
X534942Y304050D03*
X534942Y291350D03*
X534942Y278650D03*
X534942Y265950D03*
X534942Y253250D03*
X534942Y240550D03*
X465058Y240550D03*
X465058Y253250D03*
X465058Y265950D03*
X465058Y278650D03*
X465058Y291350D03*
X465058Y304050D03*
X465058Y316750D03*
X465058Y329450D03*
X534942Y139450D03*
X534942Y126750D03*
X534942Y114050D03*
X534942Y101350D03*
X534942Y88650D03*
X534942Y75950D03*
X534942Y63250D03*
X534942Y50550D03*
X465058Y50550D03*
X465058Y63250D03*
X465058Y75950D03*
X465058Y88650D03*
X465058Y101350D03*
X465058Y114050D03*
X465058Y126750D03*
X465058Y139450D03*
D12*
X100000Y715800D03*
X100000Y690400D03*
X100000Y665000D03*
X100000Y639600D03*
X100000Y614200D03*
X150000Y614200D03*
X150000Y639600D03*
X150000Y665000D03*
X150000Y690400D03*
X150000Y715800D03*
X100000Y525800D03*
X100000Y500400D03*
X100000Y475000D03*
X100000Y449600D03*
X100000Y424200D03*
X150000Y424200D03*
X150000Y449600D03*
X150000Y475000D03*
X150000Y500400D03*
X150000Y525800D03*
X100000Y335800D03*
X100000Y310400D03*
X100000Y285000D03*
X100000Y259600D03*
X100000Y234200D03*
X150000Y234200D03*
X150000Y259600D03*
X150000Y285000D03*
X150000Y310400D03*
X150000Y335800D03*
D11*
X159942Y139450D03*
X159942Y126750D03*
X159942Y114050D03*
X159942Y101350D03*
X159942Y88650D03*
X159942Y75950D03*
X159942Y63250D03*
X159942Y50550D03*
X90058Y50550D03*
X90058Y63250D03*
X90058Y75950D03*
X90058Y88650D03*
X90058Y101350D03*
X90058Y114050D03*
X90058Y126750D03*
X90058Y139450D03*
D13*
X206250Y44700D03*
X206250Y57400D03*
X206250Y70100D03*
X206250Y82800D03*
X206250Y95500D03*
X206250Y108200D03*
X206250Y120900D03*
X206250Y133600D03*
X206250Y146300D03*
X301750Y146300D03*
X301750Y133600D03*
X301750Y120900D03*
X301750Y108200D03*
X301750Y95500D03*
X301750Y82800D03*
X301750Y70100D03*
X301750Y57400D03*
X301750Y44700D03*
D14*
X337152Y35500D03*
X320848Y35500D03*
X320848Y53000D03*
X337152Y53000D03*
X320848Y70500D03*
X337152Y70500D03*
X320848Y85500D03*
X337152Y85500D03*
X320848Y103000D03*
X337152Y103000D03*
X320848Y120500D03*
X337152Y120500D03*
X320848Y138000D03*
X337152Y138000D03*
X320848Y155500D03*
X337152Y155500D03*
D15*
X452746Y710000D03*
X437254Y710000D03*
X452746Y520000D03*
X437254Y520000D03*
X452746Y330000D03*
X437254Y330000D03*
X452746Y139000D03*
X437254Y139000D03*
X77746Y139500D03*
X62254Y139500D03*
D10*
X273400Y588800D03*
X298800Y588800D03*
X324200Y588800D03*
X349600Y588800D03*
X375000Y588800D03*
X400400Y588800D03*
X425800Y588800D03*
X451200Y588800D03*
X476600Y588800D03*
X476600Y741200D03*
X451200Y741200D03*
X425800Y741200D03*
X400400Y741200D03*
X375000Y741200D03*
X349600Y741200D03*
X324200Y741200D03*
X298800Y741200D03*
X273400Y741200D03*
X273400Y398800D03*
X298800Y398800D03*
X324200Y398800D03*
X349600Y398800D03*
X375000Y398800D03*
X400400Y398800D03*
X425800Y398800D03*
X451200Y398800D03*
X476600Y398800D03*
X476600Y551200D03*
X451200Y551200D03*
X425800Y551200D03*
X400400Y551200D03*
X375000Y551200D03*
X349600Y551200D03*
X324200Y551200D03*
X298800Y551200D03*
X273400Y551200D03*
X273400Y208800D03*
X298800Y208800D03*
X324200Y208800D03*
X349600Y208800D03*
X375000Y208800D03*
X400400Y208800D03*
X425800Y208800D03*
X451200Y208800D03*
X476600Y208800D03*
X476600Y361200D03*
X451200Y361200D03*
X425800Y361200D03*
X400400Y361200D03*
X375000Y361200D03*
X349600Y361200D03*
X324200Y361200D03*
X298800Y361200D03*
X273400Y361200D03*
X273400Y18800D03*
X298800Y18800D03*
X324200Y18800D03*
X349600Y18800D03*
X375000Y18800D03*
X400400Y18800D03*
X425800Y18800D03*
X451200Y18800D03*
X476600Y18800D03*
X476600Y171200D03*
X451200Y171200D03*
X425800Y171200D03*
X400400Y171200D03*
X375000Y171200D03*
X349600Y171200D03*
X324200Y171200D03*
X298800Y171200D03*
X273400Y171200D03*
X523400Y588800D03*
X548800Y588800D03*
X574200Y588800D03*
X599600Y588800D03*
X625000Y588800D03*
X650400Y588800D03*
X675800Y588800D03*
X701200Y588800D03*
X726600Y588800D03*
X726600Y741200D03*
X701200Y741200D03*
X675800Y741200D03*
X650400Y741200D03*
X625000Y741200D03*
X599600Y741200D03*
X574200Y741200D03*
X548800Y741200D03*
X523400Y741200D03*
X773400Y588800D03*
X798800Y588800D03*
X824200Y588800D03*
X849600Y588800D03*
X875000Y588800D03*
X900400Y588800D03*
X925800Y588800D03*
X951200Y588800D03*
X976600Y588800D03*
X976600Y741200D03*
X951200Y741200D03*
X925800Y741200D03*
X900400Y741200D03*
X875000Y741200D03*
X849600Y741200D03*
X824200Y741200D03*
X798800Y741200D03*
X773400Y741200D03*
X523400Y398800D03*
X548800Y398800D03*
X574200Y398800D03*
X599600Y398800D03*
X625000Y398800D03*
X650400Y398800D03*
X675800Y398800D03*
X701200Y398800D03*
X726600Y398800D03*
X726600Y551200D03*
X701200Y551200D03*
X675800Y551200D03*
X650400Y551200D03*
X625000Y551200D03*
X599600Y551200D03*
X574200Y551200D03*
X548800Y551200D03*
X523400Y551200D03*
X773400Y398800D03*
X798800Y398800D03*
X824200Y398800D03*
X849600Y398800D03*
X875000Y398800D03*
X900400Y398800D03*
X925800Y398800D03*
X951200Y398800D03*
X976600Y398800D03*
X976600Y551200D03*
X951200Y551200D03*
X925800Y551200D03*
X900400Y551200D03*
X875000Y551200D03*
X849600Y551200D03*
X824200Y551200D03*
X798800Y551200D03*
X773400Y551200D03*
X523400Y208800D03*
X548800Y208800D03*
X574200Y208800D03*
X599600Y208800D03*
X625000Y208800D03*
X650400Y208800D03*
X675800Y208800D03*
X701200Y208800D03*
X726600Y208800D03*
X726600Y361200D03*
X701200Y361200D03*
X675800Y361200D03*
X650400Y361200D03*
X625000Y361200D03*
X599600Y361200D03*
X574200Y361200D03*
X548800Y361200D03*
X523400Y361200D03*
X773400Y208800D03*
X798800Y208800D03*
X824200Y208800D03*
X849600Y208800D03*
X875000Y208800D03*
X900400Y208800D03*
X925800Y208800D03*
X951200Y208800D03*
X976600Y208800D03*
X976600Y361200D03*
X951200Y361200D03*
X925800Y361200D03*
X900400Y361200D03*
X875000Y361200D03*
X849600Y361200D03*
X824200Y361200D03*
X798800Y361200D03*
X773400Y361200D03*
X523400Y18800D03*
X548800Y18800D03*
X574200Y18800D03*
X599600Y18800D03*
X625000Y18800D03*
X650400Y18800D03*
X675800Y18800D03*
X701200Y18800D03*
X726600Y18800D03*
X726600Y171200D03*
X701200Y171200D03*
X675800Y171200D03*
X650400Y171200D03*
X625000Y171200D03*
X599600Y171200D03*
X574200Y171200D03*
X548800Y171200D03*
X523400Y171200D03*
X773400Y18800D03*
X798800Y18800D03*
X824200Y18800D03*
X849600Y18800D03*
X875000Y18800D03*
X900400Y18800D03*
X925800Y18800D03*
X951200Y18800D03*
X976600Y18800D03*
X976600Y171200D03*
X951200Y171200D03*
X925800Y171200D03*
X900400Y171200D03*
X875000Y171200D03*
X849600Y171200D03*
X824200Y171200D03*
X798800Y171200D03*
X773400Y171200D03*
D11*
X534942Y709450D03*
X534942Y696750D03*
X534942Y684050D03*
X534942Y671350D03*
X534942Y658650D03*
X534942Y645950D03*
X534942Y633250D03*
X534942Y620550D03*
X465058Y620550D03*
X465058Y633250D03*
X465058Y645950D03*
X465058Y658650D03*
X465058Y671350D03*
X465058Y684050D03*
X465058Y696750D03*
X465058Y709450D03*
D16*
X534942Y50550D02*
X526489Y42097D01*
X526500Y42000D01*
X520000Y240500D02*
X520449Y240550D01*
X534942Y240550D01*
X155000Y50000D02*
X145000Y40000D01*
X155000Y50000D02*
X159942Y50550D01*
X191000Y144000D02*
X204038Y144000D01*
X174000Y50500D02*
X159947Y50500D01*
X204038Y144000D02*
X206250Y146300D01*
X159942Y50550D02*
X159947Y50500D01*
X90000Y273500D02*
X100000Y283500D01*
X100000Y285000D01*
X89500Y464000D02*
X100000Y474500D01*
X100000Y475000D01*
X90000Y655000D02*
X100000Y665000D01*
X212885Y144000D02*
X221500Y144000D01*
X212885Y144000D02*
X206250Y146300D01*
X62254Y139500D02*
X49754Y139500D01*
X50810Y128056D02*
X62254Y139500D01*
X437254Y139000D02*
X437254Y127508D01*
X437000Y127254D01*
X437254Y319008D02*
X437254Y330000D01*
X437254Y319008D02*
X437000Y318754D01*
X437254Y699000D02*
X437254Y710000D01*
X437254Y699000D02*
X437500Y698754D01*
X521050Y620550D02*
X534942Y620550D01*
X534942Y430550D02*
X521550Y430550D01*
D17*
X437500Y698754D03*
X521050Y620550D03*
X521550Y430550D03*
D16*
X437254Y508254D02*
X437254Y520000D01*
X437254Y508254D02*
X437000Y508000D01*
D17*
X437000Y508000D03*
X520000Y240500D03*
X437000Y318754D03*
X526500Y42000D03*
X437000Y127254D03*
X221500Y144000D03*
X191000Y144000D03*
X174000Y50500D03*
X145000Y40000D03*
X50810Y128056D03*
X49754Y139500D03*
X90000Y273500D03*
X89500Y464000D03*
X75000Y655000D03*
D16*
X90000Y655000D01*
X90008Y139500D02*
X77746Y139500D01*
X90008Y139500D02*
X90058Y139450D01*
X453196Y139450D02*
X465058Y139450D01*
X453196Y139450D02*
X452746Y139000D01*
X453296Y329450D02*
X465058Y329450D01*
X453296Y329450D02*
X452746Y330000D01*
X453296Y519450D02*
X465058Y519450D01*
X453296Y519450D02*
X452746Y520000D01*
X453296Y709450D02*
X465058Y709450D01*
X453296Y709450D02*
X452746Y710000D01*
X88746Y150500D02*
X77746Y139500D01*
X88746Y150500D02*
X89000Y150500D01*
D17*
X89000Y150500D03*
D16*
X452746Y145746D02*
X452746Y139000D01*
X452746Y145746D02*
X461500Y154500D01*
D17*
X461500Y154500D03*
D16*
X452746Y330000D02*
X452746Y332746D01*
X460000Y340000D01*
D17*
X460000Y340000D03*
D16*
X452746Y520000D02*
X452746Y522746D01*
X460000Y530000D01*
D17*
X460000Y530000D03*
D16*
X452746Y710000D02*
X452746Y712746D01*
X460000Y720000D01*
D17*
X460000Y720000D03*
D16*
X100000Y310400D02*
X99600Y310000D01*
X70000Y310000D01*
X99600Y500000D02*
X100000Y500400D01*
X99600Y500000D02*
X70000Y500000D01*
X99600Y690000D02*
X100000Y690400D01*
X99600Y690000D02*
X70000Y690000D01*
D17*
X70000Y690000D03*
X70000Y500000D03*
X70000Y310000D03*
D18*
X147500Y340000D02*
X150000Y337500D01*
X147500Y340000D02*
X127500Y340000D01*
X137500Y512500D02*
X150000Y525000D01*
X150000Y337500D02*
X150000Y335800D01*
X150000Y525000D02*
X150000Y525800D01*
X460000Y690000D02*
X465000Y685000D01*
X182500Y690000D02*
X177500Y690000D01*
X182500Y690000D02*
X460000Y690000D01*
X177500Y690000D02*
X152500Y715000D01*
X150000Y715000D01*
X465000Y685000D02*
X465058Y684050D01*
X150000Y715000D02*
X150000Y715800D01*
X155000Y532500D02*
X150000Y527500D01*
X155000Y532500D02*
X172500Y532500D01*
X182500Y680000D02*
X182500Y690000D01*
X150000Y527500D02*
X150000Y525800D01*
D19*
X127500Y340000D03*
X137500Y512500D03*
X172500Y532500D03*
X182500Y680000D03*
D16*
X337500Y155000D02*
X342500Y150000D01*
X402500Y150000D01*
X410000Y142500D01*
X560000Y125000D02*
X580000Y145000D01*
X887500Y145000D01*
X337500Y155000D02*
X337152Y155500D01*
D19*
X410000Y142500D03*
X485000Y132500D03*
X560000Y125000D03*
X887500Y145000D03*
X990000Y345000D03*
D16*
X968293Y145000D02*
X887500Y145000D01*
X968293Y145000D02*
X990000Y166707D01*
X990000Y345000D01*
X340000Y135000D02*
X337500Y137500D01*
X340000Y135000D02*
X400000Y135000D01*
X337500Y137500D02*
X337152Y138000D01*
D19*
X400000Y135000D03*
D16*
X350000Y120000D02*
X337500Y120000D01*
X337152Y120500D01*
X732500Y102500D02*
X752500Y122500D01*
X732500Y102500D02*
X637500Y102500D01*
D19*
X642500Y720000D03*
X350000Y120000D03*
X277500Y102500D03*
X278000Y75000D03*
X637500Y102500D03*
X752500Y122500D03*
X740000Y417500D03*
D16*
X642500Y733300D02*
X650400Y741200D01*
X642500Y733300D02*
X642500Y720000D01*
X365000Y102500D02*
X337500Y102500D01*
X337152Y103000D01*
X605000Y720000D02*
X625000Y740000D01*
X605000Y720000D02*
X540000Y720000D01*
X625000Y740000D02*
X625000Y741200D01*
D19*
X365000Y102500D03*
X450000Y55000D03*
X627500Y77500D03*
X540000Y720000D03*
D16*
X340000Y90000D02*
X337500Y87500D01*
X340000Y90000D02*
X375000Y90000D01*
X337500Y87500D02*
X337152Y85500D01*
X400400Y171200D02*
X402500Y170000D01*
X420922Y151578D02*
X420922Y135922D01*
X420922Y151578D02*
X402500Y170000D01*
X420922Y135922D02*
X375000Y90000D01*
X382500Y72500D02*
X337500Y72500D01*
X337152Y70500D01*
D19*
X382500Y72500D03*
X380000Y122500D03*
X497500Y137500D03*
D16*
X342500Y47500D02*
X337500Y52500D01*
X342500Y47500D02*
X350000Y47500D01*
X337500Y52500D02*
X337152Y53000D01*
X10000Y410000D02*
X55000Y455000D01*
X75000Y475000D01*
X10000Y410000D02*
X10000Y310000D01*
X10000Y540000D02*
X10000Y610000D01*
X52500Y457500D02*
X55000Y455000D01*
D19*
X350000Y47500D03*
X270000Y127500D03*
X122500Y320000D03*
X75000Y475000D03*
X23500Y283000D03*
X75000Y712500D03*
D16*
X50810Y688310D02*
X50810Y650810D01*
X50810Y688310D02*
X75000Y712500D01*
X50810Y650810D02*
X10000Y610000D01*
X10000Y540000D02*
X10088Y539912D01*
X10088Y481101D01*
X33689Y457500D01*
X52500Y457500D01*
X10000Y310000D02*
X23500Y296500D01*
X23500Y283000D01*
X317500Y32500D02*
X320000Y35000D01*
X317500Y32500D02*
X290000Y32500D01*
X222500Y100000D01*
X222500Y115000D01*
X320000Y35000D02*
X320848Y35500D01*
D19*
X222500Y115000D03*
X240000Y237500D03*
D18*
X452500Y495000D02*
X465000Y495000D01*
X441500Y605000D02*
X441500Y620000D01*
X465000Y620000D01*
X465000Y495000D02*
X465058Y494050D01*
X465000Y620000D02*
X465058Y620550D01*
D19*
X452500Y495000D03*
X441500Y605000D03*
D18*
X467500Y112500D02*
X482500Y97500D01*
X482500Y70000D01*
X503000Y236000D02*
X499000Y240000D01*
X467500Y240000D01*
X465058Y114050D02*
X467500Y112500D01*
X467500Y240000D02*
X465058Y240550D01*
D19*
X482500Y70000D03*
X503000Y236000D03*
D18*
X460000Y640000D02*
X465000Y645000D01*
X190000Y640000D02*
X150000Y640000D01*
X190000Y640000D02*
X460000Y640000D01*
X465000Y645000D02*
X465058Y645950D01*
X150000Y640000D02*
X150000Y639600D01*
X460000Y450000D02*
X465000Y455000D01*
X185000Y450000D02*
X150000Y450000D01*
X185000Y450000D02*
X460000Y450000D01*
X465000Y455000D02*
X465058Y455950D01*
X150000Y450000D02*
X150000Y449600D01*
X110000Y95000D02*
X92500Y77500D01*
X122500Y252500D02*
X127500Y257500D01*
X150000Y257500D01*
X92500Y77500D02*
X90058Y75950D01*
X150000Y257500D02*
X150000Y259600D01*
X422500Y75000D02*
X465000Y75000D01*
X422500Y75000D02*
X412500Y85000D01*
X390000Y85000D01*
X465058Y75950D02*
X465000Y75000D01*
X465000Y265000D02*
X155000Y265000D01*
X150000Y260000D01*
X465000Y265000D02*
X465058Y265950D01*
X150000Y260000D02*
X150000Y259600D01*
D19*
X110000Y95000D03*
X122500Y252500D03*
X390000Y85000D03*
X185000Y450000D03*
X190000Y640000D03*
D18*
X460000Y437500D02*
X465000Y442500D01*
X242500Y437500D02*
X162500Y437500D01*
X242500Y437500D02*
X460000Y437500D01*
X162500Y437500D02*
X150000Y425000D01*
X465000Y442500D02*
X465058Y443250D01*
X150000Y425000D02*
X150000Y424200D01*
X460000Y627500D02*
X465000Y632500D01*
X242500Y627500D02*
X162500Y627500D01*
X242500Y627500D02*
X460000Y627500D01*
X162500Y627500D02*
X150000Y615000D01*
X465000Y632500D02*
X465058Y633250D01*
X150000Y615000D02*
X150000Y614200D01*
X242500Y610000D02*
X242500Y627500D01*
X87500Y67500D02*
X90000Y65000D01*
X87500Y67500D02*
X85000Y67500D01*
X12500Y140000D01*
X20000Y245000D02*
X140000Y245000D01*
X150000Y235000D01*
X90000Y65000D02*
X90058Y63250D01*
X467500Y65000D02*
X475000Y72500D01*
X475000Y80000D01*
X132500Y92500D02*
X105000Y65000D01*
X92500Y65000D01*
X465058Y63250D02*
X467500Y65000D01*
X92500Y65000D02*
X90058Y63250D01*
X460000Y247500D02*
X465000Y252500D01*
X200000Y247500D02*
X162500Y247500D01*
X200000Y247500D02*
X460000Y247500D01*
X162500Y247500D02*
X150000Y235000D01*
X465000Y252500D02*
X465058Y253250D01*
X150000Y235000D02*
X150000Y234200D01*
D19*
X242500Y437500D03*
X242500Y610000D03*
X427500Y82500D03*
X132500Y92500D03*
X215000Y257500D03*
D18*
X20000Y245000D02*
X12500Y237500D01*
X12500Y140000D01*
X472500Y82500D02*
X475000Y80000D01*
X472500Y82500D02*
X427500Y82500D01*
X210000Y257500D02*
X200000Y247500D01*
X210000Y257500D02*
X215000Y257500D01*
X465000Y660000D02*
X460000Y665000D01*
X335000Y665000D02*
X150000Y665000D01*
X335000Y665000D02*
X460000Y665000D01*
X465000Y660000D02*
X465058Y658650D01*
X460000Y285000D02*
X465000Y280000D01*
X460000Y285000D02*
X150000Y285000D01*
X465000Y280000D02*
X465058Y278650D01*
X90000Y90000D02*
X85000Y95000D01*
X67000Y95000D01*
X54500Y107500D01*
X25000Y479500D02*
X33000Y487500D01*
X137500Y487500D01*
X150000Y475000D01*
X90000Y90000D02*
X90058Y88650D01*
X460000Y95000D02*
X465000Y90000D01*
X460000Y95000D02*
X410000Y95000D01*
X125000Y110000D02*
X122500Y107500D01*
X55000Y107500D02*
X54500Y107500D01*
X55000Y107500D02*
X122500Y107500D01*
X465000Y90000D02*
X465058Y88650D01*
X465000Y470000D02*
X460000Y475000D01*
X335000Y475000D02*
X157500Y475000D01*
X335000Y475000D02*
X460000Y475000D01*
X465000Y470000D02*
X465058Y468650D01*
X150000Y285000D02*
X145000Y290000D01*
X127500Y290000D01*
X157500Y462500D02*
X157500Y475000D01*
X150000Y475000D01*
X335000Y475000D02*
X335000Y480000D01*
D19*
X25500Y149000D03*
X25000Y479500D03*
X410000Y95000D03*
X125000Y110000D03*
X127500Y290000D03*
X157500Y462500D03*
X335000Y665000D03*
X335000Y480000D03*
D18*
X25500Y149000D02*
X25500Y137000D01*
X55000Y107500D01*
X460000Y487500D02*
X465000Y482500D01*
X250000Y487500D02*
X162500Y487500D01*
X250000Y487500D02*
X460000Y487500D01*
X162500Y487500D02*
X150000Y500000D01*
X465000Y482500D02*
X465058Y481350D01*
X150000Y500000D02*
X150000Y500400D01*
X170000Y672500D02*
X250000Y672500D01*
X465000Y672500D01*
X170000Y672500D02*
X152500Y690000D01*
X150000Y690000D01*
X465000Y672500D02*
X465058Y671350D01*
X150000Y690000D02*
X150000Y690400D01*
X475000Y290000D02*
X475000Y272500D01*
X475000Y290000D02*
X467500Y290000D01*
X465058Y291350D01*
X135000Y102500D02*
X92500Y102500D01*
X135000Y102500D02*
X140000Y97500D01*
X140000Y47500D01*
X102500Y47500D01*
X97500Y42500D01*
X55000Y42500D01*
X7500Y90000D01*
X7500Y260000D01*
X20000Y272500D02*
X57500Y272500D01*
X82500Y297500D01*
X137500Y297500D01*
X150000Y310000D01*
X92500Y102500D02*
X90058Y101350D01*
X150000Y310000D02*
X150000Y310400D01*
X460000Y297500D02*
X465000Y292500D01*
X180000Y297500D02*
X137500Y297500D01*
X180000Y297500D02*
X460000Y297500D01*
X465000Y292500D02*
X465058Y291350D01*
D19*
X250000Y487500D03*
X250000Y672500D03*
X446500Y120000D03*
X475000Y272500D03*
X207500Y340000D03*
D18*
X446500Y120000D02*
X446500Y107000D01*
X452150Y101350D01*
X465058Y101350D01*
X207500Y325000D02*
X207500Y340000D01*
X207500Y325000D02*
X180000Y297500D01*
X20000Y272500D02*
X7500Y260000D01*
X460000Y45000D02*
X465000Y50000D01*
X460000Y45000D02*
X365000Y45000D01*
X37500Y232500D02*
X27500Y222500D01*
X37500Y232500D02*
X100000Y232500D01*
X465058Y50550D02*
X465000Y50000D01*
X100000Y232500D02*
X100000Y234200D01*
X92500Y415000D02*
X100000Y422500D01*
X92500Y415000D02*
X32500Y415000D01*
X100000Y422500D02*
X100000Y424200D01*
X91000Y603500D02*
X100000Y612500D01*
X91000Y603500D02*
X33000Y603500D01*
X100000Y612500D02*
X100000Y614200D01*
D19*
X365000Y45000D03*
X77500Y65000D03*
X27500Y222500D03*
X32500Y415000D03*
X33000Y603500D03*
D18*
X85000Y120000D02*
X90000Y115000D01*
X85000Y120000D02*
X80000Y120000D01*
X72500Y254000D02*
X76000Y257500D01*
X72500Y254000D02*
X40000Y254000D01*
X76000Y257500D02*
X100000Y257500D01*
X90000Y115000D02*
X90058Y114050D01*
X100000Y257500D02*
X100000Y259600D01*
X87500Y435000D02*
X100000Y447500D01*
X87500Y435000D02*
X50000Y435000D01*
X100000Y447500D02*
X100000Y449600D01*
X90000Y627500D02*
X100000Y637500D01*
X57000Y627500D02*
X52000Y622500D01*
X57000Y627500D02*
X90000Y627500D01*
X100000Y637500D02*
X100000Y639600D01*
D19*
X80000Y120000D03*
X40000Y254000D03*
X50000Y435000D03*
X52000Y622500D03*
D18*
X327500Y45000D02*
X335000Y37500D01*
X327500Y45000D02*
X302500Y45000D01*
X335000Y37500D02*
X337152Y35500D01*
X302500Y45000D02*
X301750Y44700D01*
X302500Y55000D02*
X320000Y55000D01*
X320848Y53000D01*
X302500Y55000D02*
X301750Y57400D01*
X302500Y70000D02*
X320000Y70000D01*
X320848Y70500D01*
X302500Y70000D02*
X301750Y70100D01*
X302500Y85000D02*
X320000Y85000D01*
X320848Y85500D01*
X302500Y85000D02*
X301750Y82800D01*
X315000Y97500D02*
X320000Y102500D01*
X315000Y97500D02*
X302500Y97500D01*
X320000Y102500D02*
X320848Y103000D01*
X302500Y97500D02*
X301750Y95500D01*
X310000Y110000D02*
X320000Y120000D01*
X310000Y110000D02*
X302500Y110000D01*
X320000Y120000D02*
X320848Y120500D01*
X302500Y110000D02*
X301750Y108200D01*
X302500Y122500D02*
X307500Y122500D01*
X302500Y122500D02*
X301750Y120900D01*
X313798Y130950D02*
X320848Y138000D01*
X313798Y130950D02*
X313798Y128798D01*
X307500Y122500D01*
X320000Y155000D02*
X292500Y155000D01*
X287500Y150000D01*
X287500Y140000D01*
X320000Y155000D02*
X320848Y155500D01*
X301750Y133600D02*
X300000Y135000D01*
X292500Y135000D02*
X287500Y140000D01*
X292500Y135000D02*
X300000Y135000D01*
X162500Y60000D02*
X160000Y62500D01*
X162500Y60000D02*
X185000Y60000D01*
X200000Y45000D01*
X205000Y45000D01*
X160000Y62500D02*
X159942Y63250D01*
X205000Y45000D02*
X206250Y44700D01*
X165000Y70000D02*
X160000Y75000D01*
X165000Y70000D02*
X187500Y70000D01*
X200000Y57500D01*
X205000Y57500D01*
X160000Y75000D02*
X159942Y75950D01*
X205000Y57500D02*
X206250Y57400D01*
X165000Y82500D02*
X160000Y87500D01*
X165000Y82500D02*
X187500Y82500D01*
X197500Y72500D01*
X205000Y72500D01*
X160000Y87500D02*
X159942Y88650D01*
X205000Y72500D02*
X206250Y70100D01*
X165000Y95000D02*
X160000Y100000D01*
X165000Y95000D02*
X190000Y95000D01*
X200000Y85000D01*
X205000Y85000D01*
X160000Y100000D02*
X159942Y101350D01*
X205000Y85000D02*
X206250Y82800D01*
X165000Y107500D02*
X160000Y112500D01*
X165000Y107500D02*
X190000Y107500D01*
X200000Y97500D01*
X205000Y97500D01*
X160000Y112500D02*
X159942Y114050D01*
X205000Y97500D02*
X206250Y95500D01*
X162500Y122500D02*
X160000Y125000D01*
X162500Y122500D02*
X185000Y122500D01*
X197500Y110000D01*
X205000Y110000D01*
X160000Y125000D02*
X159942Y126750D01*
X205000Y110000D02*
X206250Y108200D01*
X162500Y135000D02*
X160000Y137500D01*
X162500Y135000D02*
X180000Y135000D01*
X192500Y122500D01*
X205000Y122500D01*
X160000Y137500D02*
X159942Y139450D01*
X205000Y122500D02*
X206250Y120900D01*
X95000Y130000D02*
X92500Y127500D01*
X95000Y130000D02*
X135000Y130000D01*
X152500Y147500D01*
X175000Y147500D01*
X187500Y135000D01*
X205000Y135000D01*
X92500Y127500D02*
X90058Y126750D01*
X205000Y135000D02*
X206250Y133600D01*
X467500Y697500D02*
X470000Y700000D01*
X472500Y700000D01*
X495000Y722500D01*
X467500Y697500D02*
X465058Y696750D01*
X590000Y732500D02*
X597500Y740000D01*
X590000Y732500D02*
X545000Y732500D01*
X527500Y750000D01*
X485000Y750000D01*
X477500Y742500D01*
X597500Y740000D02*
X599600Y741200D01*
X477500Y742500D02*
X476600Y741200D01*
D19*
X495000Y722500D03*
D18*
X35000Y730000D02*
X25000Y740000D01*
X35000Y730000D02*
X165000Y730000D01*
X175000Y740000D01*
X25000Y740000D02*
X23400Y741200D01*
X175000Y740000D02*
X175800Y741200D01*
X262500Y730000D02*
X272500Y740000D01*
X262500Y730000D02*
X165000Y730000D01*
X272500Y740000D02*
X273400Y741200D01*
X677500Y740000D02*
X687500Y730000D01*
X785000Y730000D01*
X677500Y740000D02*
X675800Y741200D01*
X915000Y730000D02*
X925000Y740000D01*
X915000Y730000D02*
X785000Y730000D01*
X775000Y740000D01*
X925000Y740000D02*
X925800Y741200D01*
X775000Y740000D02*
X773400Y741200D01*
X645000Y710000D02*
X535000Y710000D01*
X645000Y710000D02*
X665000Y730000D01*
X535000Y710000D02*
X534942Y709450D01*
X425000Y740000D02*
X415000Y730000D01*
X425000Y740000D02*
X425800Y741200D01*
X415000Y730000D02*
X262500Y730000D01*
X512200Y730000D02*
X523400Y741200D01*
X512200Y730000D02*
X415000Y730000D01*
X512200Y730000D02*
X532750Y709450D01*
X665000Y730000D02*
X687500Y730000D01*
X534942Y709450D02*
X532750Y709450D01*
X298800Y741200D02*
X298800Y744264D01*
X287500Y755564D01*
X63064Y755564D01*
X50000Y742500D01*
X48800Y741200D01*
X535000Y697500D02*
X540000Y702500D01*
X545000Y702500D01*
X535000Y697500D02*
X534942Y696750D01*
X510000Y695000D02*
X477500Y662500D01*
X510000Y695000D02*
X532500Y695000D01*
X534942Y696750D01*
X784500Y755500D02*
X798800Y741200D01*
X784500Y755500D02*
X534500Y755500D01*
X910000Y605000D02*
X925000Y590000D01*
X910000Y605000D02*
X737500Y605000D01*
X925000Y590000D02*
X925800Y588800D01*
D19*
X545000Y702500D03*
X477500Y662500D03*
X737500Y605000D03*
D18*
X548800Y741200D02*
X534500Y755500D01*
X534436Y755564D01*
X287500Y755564D01*
X535000Y685000D02*
X540000Y690000D01*
X547500Y690000D01*
X535000Y685000D02*
X534942Y684050D01*
X940000Y752500D02*
X950000Y742500D01*
X940000Y752500D02*
X835000Y752500D01*
X825000Y742500D01*
X950000Y742500D02*
X951200Y741200D01*
X825000Y742500D02*
X824200Y741200D01*
D19*
X547500Y690000D03*
D18*
X532500Y670000D02*
X487500Y625000D01*
X482500Y625000D01*
X532500Y670000D02*
X534942Y671350D01*
X895000Y670000D02*
X975000Y590000D01*
X895000Y670000D02*
X535000Y670000D01*
X975000Y590000D02*
X976600Y588800D01*
X535000Y670000D02*
X534942Y671350D01*
D19*
X482500Y625000D03*
D18*
X535000Y657500D02*
X540000Y652500D01*
X545000Y652500D01*
X535000Y657500D02*
X534942Y658650D01*
X887500Y652500D02*
X951200Y588800D01*
X887500Y652500D02*
X545000Y652500D01*
X468500Y612500D02*
X459500Y603500D01*
X468500Y612500D02*
X487500Y612500D01*
X532500Y657500D01*
X534942Y658650D01*
D19*
X545000Y652500D03*
X459500Y603500D03*
D18*
X57500Y580000D02*
X50000Y587500D01*
X140000Y580000D02*
X142500Y580000D01*
X140000Y580000D02*
X57500Y580000D01*
X50000Y587500D02*
X48800Y588800D01*
X300000Y587500D02*
X307500Y580000D01*
X410000Y580000D01*
X300000Y587500D02*
X298800Y588800D01*
X160000Y580000D02*
X152500Y587500D01*
X160000Y580000D02*
X307500Y580000D01*
X152500Y587500D02*
X150400Y588800D01*
X790000Y580000D02*
X892500Y580000D01*
X900000Y587500D01*
X900400Y588800D01*
X540000Y640000D02*
X535000Y645000D01*
X540000Y640000D02*
X545000Y640000D01*
X535000Y645000D02*
X534942Y645950D01*
X642500Y580000D02*
X650000Y587500D01*
X642500Y580000D02*
X557500Y580000D01*
X550000Y587500D01*
X650000Y587500D02*
X650400Y588800D01*
X550000Y587500D02*
X548800Y588800D01*
X790000Y580000D02*
X798800Y588800D01*
X790000Y580000D02*
X642500Y580000D01*
X410000Y580000D02*
X402500Y587500D01*
X410000Y580000D02*
X557500Y580000D01*
X402500Y587500D02*
X400400Y588800D01*
D19*
X545000Y640000D03*
D18*
X160000Y580000D02*
X142500Y580000D01*
X32500Y597500D02*
X25000Y590000D01*
X32500Y597500D02*
X132500Y597500D01*
X25000Y590000D02*
X23400Y588800D01*
X275000Y590000D02*
X282500Y597500D01*
X367500Y597500D01*
X275000Y590000D02*
X273400Y588800D01*
X132500Y597500D02*
X125000Y590000D01*
X132500Y597500D02*
X282500Y597500D01*
X125000Y590000D02*
X125000Y588800D01*
X775000Y590000D02*
X782500Y597500D01*
X867500Y597500D01*
X875000Y590000D01*
X775000Y590000D02*
X773400Y588800D01*
X875000Y588800D02*
X875000Y590000D01*
X532500Y632500D02*
X530000Y630000D01*
X517500Y630000D01*
X512500Y625000D01*
X512500Y610000D01*
X532500Y632500D02*
X534942Y633250D01*
X582500Y632500D02*
X617500Y597500D01*
X625000Y590000D01*
X582500Y632500D02*
X535000Y632500D01*
X625000Y590000D02*
X625000Y588800D01*
X535000Y632500D02*
X534942Y633250D01*
X382500Y597500D02*
X375000Y590000D01*
X500000Y597500D02*
X514700Y597500D01*
X500000Y597500D02*
X382500Y597500D01*
X375000Y590000D02*
X375000Y588800D01*
X617500Y597500D02*
X782500Y597500D01*
X523400Y588800D02*
X514700Y597500D01*
X512500Y610000D02*
X500000Y597500D01*
X382500Y597500D02*
X367500Y597500D01*
X462500Y502500D02*
X465000Y505000D01*
X462500Y502500D02*
X445000Y502500D01*
X440000Y497500D01*
X350000Y497500D02*
X280000Y497500D01*
X350000Y497500D02*
X440000Y497500D01*
X237500Y540000D02*
X227500Y550000D01*
X237500Y540000D02*
X280000Y497500D01*
X465000Y505000D02*
X465058Y506750D01*
X227500Y550000D02*
X226600Y551200D01*
X110000Y540000D02*
X100000Y550000D01*
X110000Y540000D02*
X237500Y540000D01*
X100000Y550000D02*
X99600Y551200D01*
X350000Y552500D02*
X360000Y562500D01*
X350000Y552500D02*
X349600Y551200D01*
X487500Y562500D02*
X490000Y565000D01*
X487500Y562500D02*
X477500Y552500D01*
X490000Y565000D02*
X522855Y565000D01*
X590000Y542500D02*
X597500Y550000D01*
X477500Y552500D02*
X476600Y551200D01*
X597500Y550000D02*
X599600Y551200D01*
X960000Y535000D02*
X975000Y550000D01*
X960000Y535000D02*
X742500Y535000D01*
X727500Y550000D01*
X975000Y550000D02*
X976600Y551200D01*
X727500Y550000D02*
X726600Y551200D01*
D19*
X350000Y497500D03*
D18*
X522855Y565000D02*
X545355Y542500D01*
X590000Y542500D01*
X487500Y562500D02*
X360000Y562500D01*
X32500Y542500D02*
X25000Y550000D01*
X32500Y542500D02*
X52500Y542500D01*
X72500Y562500D01*
X155000Y562500D01*
X166500Y551000D01*
X175600Y551000D02*
X175800Y551200D01*
X175600Y551000D02*
X166500Y551000D01*
X25000Y550000D02*
X23400Y551200D01*
X265000Y560000D02*
X272500Y552500D01*
X265000Y560000D02*
X190000Y560000D01*
X272500Y552500D02*
X273400Y551200D01*
X532500Y537500D02*
X532500Y520000D01*
X534942Y519450D01*
X437500Y540000D02*
X427500Y550000D01*
X437500Y540000D02*
X467500Y540000D01*
X470000Y537500D01*
X532500Y537500D01*
X427500Y550000D02*
X425800Y551200D01*
X677500Y552500D02*
X685000Y560000D01*
X765000Y560000D01*
X772500Y552500D01*
X677500Y552500D02*
X675800Y551200D01*
X772500Y552500D02*
X773400Y551200D01*
X915000Y540000D02*
X925000Y550000D01*
X915000Y540000D02*
X785000Y540000D01*
X775000Y550000D01*
X925000Y550000D02*
X925800Y551200D01*
X775000Y550000D02*
X773400Y551200D01*
X662500Y537500D02*
X532500Y537500D01*
X662500Y537500D02*
X675000Y550000D01*
X675800Y551200D01*
X285000Y540000D02*
X275000Y550000D01*
X285000Y540000D02*
X437500Y540000D01*
X275000Y550000D02*
X273400Y551200D01*
X523400Y551200D02*
X532500Y542100D01*
X532500Y537500D01*
X181200Y551200D02*
X175800Y551200D01*
X181200Y551200D02*
X190000Y560000D01*
X165000Y562500D02*
X160000Y567500D01*
X65000Y567500D01*
X50000Y552500D01*
X48800Y551200D01*
X172500Y570000D02*
X280000Y570000D01*
X172500Y570000D02*
X165000Y562500D01*
X535000Y507500D02*
X540000Y512500D01*
X545000Y512500D01*
X535000Y507500D02*
X534942Y506750D01*
X510000Y505000D02*
X477500Y472500D01*
X510000Y505000D02*
X532500Y505000D01*
X534942Y506750D01*
X773000Y572000D02*
X780000Y565000D01*
X773000Y572000D02*
X569500Y572000D01*
X550000Y552500D01*
X548800Y551200D01*
X927500Y400000D02*
X992500Y465000D01*
X992500Y560000D01*
X980000Y572500D02*
X820000Y572500D01*
X812500Y565000D02*
X800000Y552500D01*
X925800Y398800D02*
X927500Y400000D01*
X798800Y551200D02*
X800000Y552500D01*
X317500Y570000D02*
X300000Y552500D01*
X317500Y570000D02*
X530000Y570000D01*
X548800Y551200D01*
X300000Y552500D02*
X298800Y551200D01*
D19*
X165000Y562500D03*
X545000Y512500D03*
X477500Y472500D03*
D18*
X980000Y572500D02*
X992500Y560000D01*
X812500Y565000D02*
X780000Y565000D01*
X812500Y565000D02*
X820000Y572500D01*
X317500Y570000D02*
X280000Y570000D01*
X825000Y552500D02*
X834000Y561500D01*
X941000Y561500D01*
X825000Y552500D02*
X824200Y551200D01*
X540000Y500000D02*
X535000Y495000D01*
X540000Y500000D02*
X650000Y500000D01*
X680000Y530000D02*
X701200Y551200D01*
X680000Y530000D02*
X650000Y500000D01*
X535000Y495000D02*
X534942Y494050D01*
X951200Y551200D02*
X961000Y561000D01*
X960500Y561500D02*
X978500Y561500D01*
X987500Y552500D01*
X970000Y530000D02*
X680000Y530000D01*
X457500Y545000D02*
X452500Y550000D01*
X457500Y545000D02*
X470000Y545000D01*
X472500Y542500D01*
X500000Y542500D01*
X515000Y557500D01*
X452500Y550000D02*
X451200Y551200D01*
D19*
X515000Y557500D03*
D18*
X970000Y530000D02*
X987500Y547500D01*
X987500Y552500D01*
X960500Y561500D02*
X941000Y561500D01*
X960500Y561500D02*
X961000Y561000D01*
X532500Y480000D02*
X482500Y430000D01*
X532500Y480000D02*
X534942Y481350D01*
D19*
X482500Y430000D03*
D18*
X535000Y467500D02*
X540000Y462500D01*
X545000Y462500D01*
X535000Y467500D02*
X534942Y468650D01*
X387500Y462500D02*
X385000Y460000D01*
X387500Y462500D02*
X502500Y462500D01*
X527500Y487500D01*
X542500Y487500D01*
X545000Y485000D01*
X545000Y462500D01*
D19*
X545000Y462500D03*
X385000Y460000D03*
D18*
X57500Y390000D02*
X50000Y397500D01*
X57500Y390000D02*
X160000Y390000D01*
X50000Y397500D02*
X48800Y398800D01*
X300000Y397500D02*
X307500Y390000D01*
X392500Y390000D01*
X300000Y397500D02*
X298800Y398800D01*
X160000Y390000D02*
X152500Y397500D01*
X160000Y390000D02*
X307500Y390000D01*
X152500Y397500D02*
X150400Y398800D01*
X800000Y397500D02*
X807500Y390000D01*
X892500Y390000D01*
X900000Y397500D01*
X800000Y397500D02*
X798800Y398800D01*
X900000Y397500D02*
X900400Y398800D01*
X540000Y450000D02*
X535000Y455000D01*
X540000Y450000D02*
X545000Y450000D01*
X535000Y455000D02*
X534942Y455950D01*
X642500Y390000D02*
X650000Y397500D01*
X642500Y390000D02*
X557500Y390000D01*
X550000Y397500D01*
X650000Y397500D02*
X650400Y398800D01*
X550000Y397500D02*
X548800Y398800D01*
X642500Y390000D02*
X807500Y390000D01*
X410000Y390000D02*
X402500Y397500D01*
X410000Y390000D02*
X557500Y390000D01*
X402500Y397500D02*
X400400Y398800D01*
D19*
X545000Y450000D03*
D18*
X410000Y390000D02*
X392500Y390000D01*
X32500Y407500D02*
X25000Y400000D01*
X32500Y407500D02*
X132500Y407500D01*
X25000Y400000D02*
X23400Y398800D01*
X275000Y400000D02*
X282500Y407500D01*
X275000Y400000D02*
X273400Y398800D01*
X132500Y407500D02*
X125000Y400000D01*
X132500Y407500D02*
X282500Y407500D01*
X125000Y400000D02*
X125000Y398800D01*
X775000Y400000D02*
X782500Y407500D01*
X867500Y407500D01*
X875000Y400000D01*
X775000Y400000D02*
X773400Y398800D01*
X875000Y398800D02*
X875000Y400000D01*
X532500Y442500D02*
X530000Y440000D01*
X512500Y440000D01*
X532500Y442500D02*
X534942Y443250D01*
X582500Y442500D02*
X617500Y407500D01*
X625000Y400000D01*
X582500Y442500D02*
X535000Y442500D01*
X625000Y400000D02*
X625000Y398800D01*
X535000Y442500D02*
X534942Y443250D01*
X617500Y407500D02*
X782500Y407500D01*
X382500Y407500D02*
X375000Y400000D01*
X480000Y407500D02*
X512500Y407500D01*
X480000Y407500D02*
X382500Y407500D01*
X375000Y400000D02*
X375000Y398800D01*
X521200Y398800D02*
X523400Y398800D01*
X521200Y398800D02*
X512500Y407500D01*
X512500Y440000D02*
X480000Y407500D01*
X382500Y407500D02*
X282500Y407500D01*
X737500Y350000D02*
X860000Y350000D01*
X737500Y350000D02*
X727500Y360000D01*
X726600Y361200D01*
X965000Y350000D02*
X975000Y360000D01*
X965000Y350000D02*
X860000Y350000D01*
X850000Y360000D01*
X975000Y360000D02*
X976600Y361200D01*
X850000Y360000D02*
X849600Y361200D01*
X465000Y317500D02*
X452500Y317500D01*
X465000Y317500D02*
X465058Y316750D01*
X112500Y347500D02*
X100000Y360000D01*
X260000Y347500D02*
X280000Y347500D01*
X260000Y347500D02*
X242500Y347500D01*
X112500Y347500D01*
X280000Y347500D02*
X317500Y310000D01*
X445000Y310000D01*
X452500Y317500D01*
X100000Y360000D02*
X99600Y361200D01*
X350000Y362500D02*
X360000Y372500D01*
X465000Y372500D01*
X475000Y362500D01*
X350000Y362500D02*
X349600Y361200D01*
X475000Y362500D02*
X476600Y361200D01*
X520000Y337500D02*
X500000Y317500D01*
X467500Y317500D01*
X465058Y316750D01*
D19*
X452500Y317500D03*
X242500Y330000D03*
X520000Y337500D03*
D18*
X260000Y347500D02*
X242500Y330000D01*
X32500Y352500D02*
X25000Y360000D01*
X32500Y352500D02*
X52500Y352500D01*
X72500Y372500D01*
X165000Y372500D01*
X175000Y362500D01*
X25000Y360000D02*
X23400Y361200D01*
X175000Y362500D02*
X175800Y361200D01*
X265000Y352500D02*
X272500Y360000D01*
X265000Y352500D02*
X185000Y352500D01*
X177500Y360000D01*
X272500Y360000D02*
X273400Y361200D01*
X177500Y360000D02*
X175800Y361200D01*
X677500Y362500D02*
X685000Y370000D01*
X765000Y370000D01*
X772500Y362500D01*
X677500Y362500D02*
X675800Y361200D01*
X772500Y362500D02*
X773400Y361200D01*
X665000Y350000D02*
X532500Y350000D01*
X665000Y350000D02*
X675000Y360000D01*
X675800Y361200D01*
X285000Y350000D02*
X282500Y352500D01*
X285000Y350000D02*
X415000Y350000D01*
X425000Y360000D01*
X425800Y361200D01*
X282500Y352500D02*
X265000Y352500D01*
X415000Y350000D02*
X512200Y350000D01*
X530000Y350000D01*
X532500Y350000D01*
X523400Y361200D02*
X512200Y350000D01*
X530000Y350000D02*
X534942Y345058D01*
X534942Y329450D01*
X260000Y370000D02*
X250000Y360000D01*
X260000Y370000D02*
X290000Y370000D01*
X65000Y377500D02*
X50000Y362500D01*
X65000Y377500D02*
X232500Y377500D01*
X250000Y360000D01*
X50000Y362500D02*
X48800Y361200D01*
X535000Y317500D02*
X540000Y322500D01*
X545000Y322500D01*
X535000Y317500D02*
X534942Y316750D01*
X562500Y322500D02*
X592500Y292500D01*
X562500Y322500D02*
X545000Y322500D01*
X782500Y377500D02*
X798800Y361200D01*
X782500Y377500D02*
X565000Y377500D01*
X550000Y362500D01*
X548800Y361200D01*
X320000Y382500D02*
X308750Y371250D01*
X307500Y370000D02*
X300000Y362500D01*
X320000Y382500D02*
X527500Y382500D01*
X532500Y377500D01*
X300000Y362500D02*
X298800Y361200D01*
D19*
X250000Y360000D03*
X545000Y322500D03*
X592500Y292500D03*
D18*
X565000Y377500D02*
X532500Y377500D01*
X307500Y370000D02*
X290000Y370000D01*
X307500Y370000D02*
X308750Y371250D01*
X535000Y305000D02*
X540000Y310000D01*
X545000Y310000D01*
X535000Y305000D02*
X534942Y304050D01*
X940000Y372500D02*
X950000Y362500D01*
X940000Y372500D02*
X835000Y372500D01*
X825000Y362500D01*
X950000Y362500D02*
X951200Y361200D01*
X825000Y362500D02*
X824200Y361200D01*
D19*
X545000Y310000D03*
D18*
X535000Y290000D02*
X540000Y285000D01*
X545000Y285000D01*
X535000Y290000D02*
X534942Y291350D01*
X717500Y217500D02*
X725000Y210000D01*
X717500Y217500D02*
X645000Y217500D01*
X638750Y211250D01*
X630000Y200000D02*
X607500Y200000D01*
X600000Y207500D01*
X725000Y210000D02*
X726600Y208800D01*
X600000Y207500D02*
X599600Y208800D01*
X900000Y285000D02*
X975000Y210000D01*
X900000Y285000D02*
X545000Y285000D01*
X975000Y210000D02*
X976600Y208800D01*
X507500Y290000D02*
X482500Y265000D01*
X507500Y290000D02*
X532500Y290000D01*
X534942Y291350D01*
D19*
X545000Y285000D03*
X482500Y265000D03*
D18*
X630000Y200000D02*
X638750Y208750D01*
X638750Y211250D01*
X540000Y272500D02*
X535000Y277500D01*
X540000Y272500D02*
X760000Y272500D01*
X815000Y217500D02*
X822500Y210000D01*
X815000Y217500D02*
X760000Y272500D01*
X535000Y277500D02*
X534942Y278650D01*
X822500Y210000D02*
X824200Y208800D01*
X942500Y217500D02*
X951200Y208800D01*
X820000Y217500D02*
X815000Y217500D01*
X820000Y217500D02*
X942500Y217500D01*
X710000Y200000D02*
X701200Y208800D01*
X710000Y200000D02*
X777500Y200000D01*
X505000Y277500D02*
X475000Y247500D01*
X505000Y277500D02*
X532500Y277500D01*
X534942Y278650D01*
D19*
X475000Y247500D03*
D18*
X795000Y217500D02*
X815000Y217500D01*
X795000Y217500D02*
X777500Y200000D01*
X57500Y200000D02*
X50000Y207500D01*
X57500Y200000D02*
X160000Y200000D01*
X50000Y207500D02*
X48800Y208800D01*
X300000Y207500D02*
X307500Y200000D01*
X390000Y200000D02*
X392500Y200000D01*
X390000Y200000D02*
X307500Y200000D01*
X300000Y207500D02*
X298800Y208800D01*
X160000Y200000D02*
X152500Y207500D01*
X160000Y200000D02*
X307500Y200000D01*
X152500Y207500D02*
X150400Y208800D01*
X785000Y195000D02*
X887500Y195000D01*
X900000Y207500D01*
X900400Y208800D01*
X540000Y260000D02*
X535000Y265000D01*
X540000Y260000D02*
X545000Y260000D01*
X535000Y265000D02*
X534942Y265950D01*
X637500Y195000D02*
X650000Y207500D01*
X637500Y195000D02*
X562500Y195000D01*
X557500Y200000D02*
X550000Y207500D01*
X557500Y200000D02*
X562500Y195000D01*
X650000Y207500D02*
X650400Y208800D01*
X550000Y207500D02*
X548800Y208800D01*
X785000Y195000D02*
X798800Y208800D01*
X785000Y195000D02*
X637500Y195000D01*
X410000Y200000D02*
X402500Y207500D01*
X410000Y200000D02*
X557500Y200000D01*
X402500Y207500D02*
X400400Y208800D01*
D19*
X545000Y260000D03*
D18*
X410000Y200000D02*
X392500Y200000D01*
X32500Y217500D02*
X25000Y210000D01*
X32500Y217500D02*
X132500Y217500D01*
X25000Y210000D02*
X23400Y208800D01*
X275000Y210000D02*
X282500Y217500D01*
X382500Y217500D01*
X275000Y210000D02*
X273400Y208800D01*
X132500Y217500D02*
X125000Y210000D01*
X132500Y217500D02*
X282500Y217500D01*
X125000Y210000D02*
X125000Y208800D01*
X530000Y250000D02*
X532500Y252500D01*
X530000Y250000D02*
X517500Y250000D01*
X510000Y242500D01*
X510000Y240000D01*
X532500Y252500D02*
X534942Y253250D01*
X582500Y252500D02*
X612500Y222500D01*
X625000Y210000D01*
X582500Y252500D02*
X535000Y252500D01*
X625000Y210000D02*
X625000Y208800D01*
X535000Y252500D02*
X534942Y253250D01*
X760000Y222500D02*
X772500Y210000D01*
X760000Y222500D02*
X612500Y222500D01*
X772500Y210000D02*
X773400Y208800D01*
X382500Y217500D02*
X375000Y210000D01*
X500000Y217500D02*
X510000Y217500D01*
X500000Y217500D02*
X382500Y217500D01*
X375000Y210000D02*
X375000Y208800D01*
X510000Y217500D02*
X514700Y217500D01*
X523400Y208800D01*
X510000Y227500D02*
X510000Y240000D01*
X510000Y227500D02*
X500000Y217500D01*
X600000Y170000D02*
X615000Y155000D01*
X960000Y155000D01*
X975000Y170000D01*
X600000Y170000D02*
X599600Y171200D01*
X975000Y170000D02*
X976600Y171200D01*
X110000Y182500D02*
X100000Y172500D01*
X110000Y182500D02*
X160000Y182500D01*
X100000Y172500D02*
X99600Y171200D01*
X467500Y125000D02*
X472500Y120000D01*
X475000Y120000D01*
X467500Y125000D02*
X465058Y126750D01*
X365000Y187500D02*
X357500Y180000D01*
X350000Y172500D01*
X365000Y187500D02*
X460000Y187500D01*
X475000Y172500D01*
X350000Y172500D02*
X349600Y171200D01*
X475000Y172500D02*
X476600Y171200D01*
X235000Y162500D02*
X227500Y170000D01*
X235000Y162500D02*
X277500Y162500D01*
X295000Y180000D01*
X357500Y180000D01*
X227500Y170000D02*
X226600Y171200D01*
D19*
X160000Y182500D03*
X475000Y120000D03*
D18*
X35000Y160000D02*
X25000Y170000D01*
X35000Y160000D02*
X165000Y160000D01*
X175000Y170000D01*
X25000Y170000D02*
X23400Y171200D01*
X175000Y170000D02*
X175800Y171200D01*
X265000Y180000D02*
X272500Y172500D01*
X265000Y180000D02*
X222500Y180000D01*
X202500Y160000D01*
X165000Y160000D01*
X272500Y172500D02*
X273400Y171200D01*
X532500Y164375D02*
X532500Y140000D01*
X534942Y139450D01*
X532500Y164375D02*
X523400Y171200D01*
X435000Y162500D02*
X427500Y170000D01*
X435000Y162500D02*
X457500Y162500D01*
X460000Y165000D01*
X470000Y165000D01*
X427500Y170000D02*
X425800Y171200D01*
X677500Y170000D02*
X686500Y161000D01*
X763500Y161000D01*
X772500Y170000D01*
X677500Y170000D02*
X675800Y171200D01*
X772500Y170000D02*
X773400Y171200D01*
X916000Y161000D02*
X925000Y170000D01*
X916000Y161000D02*
X763500Y161000D01*
X925000Y170000D02*
X925800Y171200D01*
X372000Y182500D02*
X363500Y174000D01*
X372000Y182500D02*
X415000Y182500D01*
X425000Y172500D01*
X425800Y171200D01*
D19*
X363500Y174000D03*
D18*
X522500Y150000D02*
X532500Y140000D01*
X485000Y150000D02*
X470000Y165000D01*
X485000Y150000D02*
X522500Y150000D01*
X297500Y170000D02*
X255000Y127500D01*
X297500Y170000D02*
X298800Y171200D01*
X535000Y127500D02*
X540000Y132500D01*
X542500Y132500D01*
X547500Y137500D01*
X547500Y170000D01*
X535000Y127500D02*
X534942Y126750D01*
X547500Y170000D02*
X548800Y171200D01*
D19*
X255000Y127500D03*
D18*
X92500Y190000D02*
X75000Y172500D01*
X74200Y171200D01*
X535000Y115000D02*
X540000Y120000D01*
X542500Y120000D01*
X572500Y150000D01*
X572500Y170000D01*
X535000Y115000D02*
X534942Y114050D01*
X572500Y170000D02*
X574200Y171200D01*
X701200Y171200D02*
X712500Y182500D01*
X940000Y182500D02*
X950000Y172500D01*
X940000Y182500D02*
X834500Y182500D01*
X825800Y173800D01*
X950000Y172500D02*
X951200Y171200D01*
X825800Y173800D02*
X824200Y171200D01*
X585000Y182500D02*
X575000Y172500D01*
X574200Y171200D01*
X550000Y195000D02*
X360000Y195000D01*
X550000Y195000D02*
X572500Y172500D01*
X574200Y171200D01*
X712500Y182500D02*
X834500Y182500D01*
X712500Y182500D02*
X585000Y182500D01*
X201200Y171200D02*
X182400Y190000D01*
X92500Y190000D01*
X355000Y190000D02*
X360000Y195000D01*
X355000Y190000D02*
X182400Y190000D01*
X522500Y90000D02*
X532500Y100000D01*
X522500Y90000D02*
X522500Y70000D01*
X470000Y32500D02*
X362500Y32500D01*
X350000Y20000D01*
X532500Y100000D02*
X534942Y101350D01*
X350000Y20000D02*
X349600Y18800D01*
D19*
X522500Y70000D03*
D18*
X512500Y60000D01*
X497500Y60000D02*
X470000Y32500D01*
X497500Y60000D02*
X512500Y60000D01*
X540000Y82500D02*
X535000Y87500D01*
X540000Y82500D02*
X590000Y82500D01*
X640000Y32500D01*
X800000Y32500D02*
X810000Y32500D01*
X800000Y32500D02*
X640000Y32500D01*
X815000Y27500D02*
X822500Y20000D01*
X815000Y27500D02*
X810000Y32500D01*
X535000Y87500D02*
X534942Y88650D01*
X822500Y20000D02*
X824200Y18800D01*
X710000Y10000D02*
X701200Y18800D01*
X710000Y10000D02*
X777500Y10000D01*
X800000Y32500D01*
X942500Y27500D02*
X951200Y18800D01*
X942500Y27500D02*
X815000Y27500D01*
X63000Y4500D02*
X50000Y17500D01*
X63000Y4500D02*
X137000Y4500D01*
X50000Y17500D02*
X48800Y18800D01*
X165000Y5000D02*
X165500Y4500D01*
X165000Y5000D02*
X152500Y17500D01*
X150400Y18800D01*
X887000Y4500D02*
X900000Y17500D01*
X900400Y18800D01*
X540000Y70000D02*
X535000Y75000D01*
X540000Y70000D02*
X545000Y70000D01*
X535000Y75000D02*
X534942Y75950D01*
X637000Y4500D02*
X650000Y17500D01*
X637000Y4500D02*
X563000Y4500D01*
X550000Y17500D01*
X650000Y17500D02*
X650400Y18800D01*
X550000Y17500D02*
X548800Y18800D01*
X784500Y4500D02*
X798800Y18800D01*
X784500Y4500D02*
X637000Y4500D01*
X415500Y4500D02*
X402500Y17500D01*
X415500Y4500D02*
X563000Y4500D01*
X402500Y17500D02*
X400400Y18800D01*
D19*
X545000Y70000D03*
D18*
X784500Y4500D02*
X887000Y4500D01*
X415500Y4500D02*
X165500Y4500D01*
X164500Y4500D02*
X137000Y4500D01*
X164500Y4500D02*
X165000Y5000D01*
X32500Y27500D02*
X25000Y20000D01*
X32500Y27500D02*
X117500Y27500D01*
X125000Y20000D01*
X25000Y20000D02*
X23400Y18800D01*
X125000Y18800D02*
X125000Y20000D01*
X265000Y27500D02*
X272500Y20000D01*
X265000Y27500D02*
X117500Y27500D01*
X272500Y20000D02*
X273400Y18800D01*
X367500Y10000D02*
X375000Y17500D01*
X367500Y10000D02*
X295000Y10000D01*
X285000Y20000D01*
X275000Y20000D01*
X375000Y18800D02*
X375000Y17500D01*
X275000Y20000D02*
X273400Y18800D01*
X530000Y60000D02*
X532500Y62500D01*
X530000Y60000D02*
X522500Y60000D01*
X532500Y62500D02*
X534942Y63250D01*
X617500Y27500D02*
X625000Y20000D01*
X617500Y27500D02*
X532500Y27500D01*
X525000Y20000D01*
X625000Y20000D02*
X625000Y18800D01*
X525000Y20000D02*
X523400Y18800D01*
X765000Y27500D02*
X772500Y20000D01*
X765000Y27500D02*
X617500Y27500D01*
X772500Y20000D02*
X773400Y18800D01*
X382500Y27500D02*
X375000Y20000D01*
X382500Y27500D02*
X532500Y27500D01*
X375000Y20000D02*
X375000Y18800D01*
D19*
X522500Y60000D03*
D18*
X465000Y305000D02*
X462500Y307500D01*
X452500Y307500D01*
X441000Y415000D02*
X456000Y430000D01*
X465000Y430000D01*
X465000Y305000D02*
X465058Y304050D01*
X465000Y430000D02*
X465058Y430550D01*
D19*
X452500Y307500D03*
X441000Y415000D03*
M02*
