G04 EAGLE Gerber RS-274X export*
G75*
%MOMM*%
%FSLAX34Y34*%
%LPD*%
%INTop Copper*%
%IPPOS*%
%AMOC8*
5,1,8,0,0,1.08239X$1,22.5*%
G01*
%ADD10C,1.108000*%
%ADD11C,0.610000*%
%ADD12C,0.762000*%
%ADD13C,0.203200*%
%ADD14C,0.460000*%


D10*
X23400Y588800D03*
X48800Y588800D03*
X74200Y588800D03*
X99600Y588800D03*
X125000Y588800D03*
X150400Y588800D03*
X175800Y588800D03*
X201200Y588800D03*
X226600Y588800D03*
X226600Y741200D03*
X201200Y741200D03*
X175800Y741200D03*
X150400Y741200D03*
X125000Y741200D03*
X99600Y741200D03*
X74200Y741200D03*
X48800Y741200D03*
X23400Y741200D03*
X23400Y398800D03*
X48800Y398800D03*
X74200Y398800D03*
X99600Y398800D03*
X125000Y398800D03*
X150400Y398800D03*
X175800Y398800D03*
X201200Y398800D03*
X226600Y398800D03*
X226600Y551200D03*
X201200Y551200D03*
X175800Y551200D03*
X150400Y551200D03*
X125000Y551200D03*
X99600Y551200D03*
X74200Y551200D03*
X48800Y551200D03*
X23400Y551200D03*
X23400Y208800D03*
X48800Y208800D03*
X74200Y208800D03*
X99600Y208800D03*
X125000Y208800D03*
X150400Y208800D03*
X175800Y208800D03*
X201200Y208800D03*
X226600Y208800D03*
X226600Y361200D03*
X201200Y361200D03*
X175800Y361200D03*
X150400Y361200D03*
X125000Y361200D03*
X99600Y361200D03*
X74200Y361200D03*
X48800Y361200D03*
X23400Y361200D03*
X23400Y18800D03*
X48800Y18800D03*
X74200Y18800D03*
X99600Y18800D03*
X125000Y18800D03*
X150400Y18800D03*
X175800Y18800D03*
X201200Y18800D03*
X226600Y18800D03*
X226600Y171200D03*
X201200Y171200D03*
X175800Y171200D03*
X150400Y171200D03*
X125000Y171200D03*
X99600Y171200D03*
X74200Y171200D03*
X48800Y171200D03*
X23400Y171200D03*
X273400Y588800D03*
X298800Y588800D03*
X324200Y588800D03*
X349600Y588800D03*
X375000Y588800D03*
X400400Y588800D03*
X425800Y588800D03*
X451200Y588800D03*
X476600Y588800D03*
X476600Y741200D03*
X451200Y741200D03*
X425800Y741200D03*
X400400Y741200D03*
X375000Y741200D03*
X349600Y741200D03*
X324200Y741200D03*
X298800Y741200D03*
X273400Y741200D03*
X273400Y398800D03*
X298800Y398800D03*
X324200Y398800D03*
X349600Y398800D03*
X375000Y398800D03*
X400400Y398800D03*
X425800Y398800D03*
X451200Y398800D03*
X476600Y398800D03*
X476600Y551200D03*
X451200Y551200D03*
X425800Y551200D03*
X400400Y551200D03*
X375000Y551200D03*
X349600Y551200D03*
X324200Y551200D03*
X298800Y551200D03*
X273400Y551200D03*
X273400Y208800D03*
X298800Y208800D03*
X324200Y208800D03*
X349600Y208800D03*
X375000Y208800D03*
X400400Y208800D03*
X425800Y208800D03*
X451200Y208800D03*
X476600Y208800D03*
X476600Y361200D03*
X451200Y361200D03*
X425800Y361200D03*
X400400Y361200D03*
X375000Y361200D03*
X349600Y361200D03*
X324200Y361200D03*
X298800Y361200D03*
X273400Y361200D03*
X273400Y18800D03*
X298800Y18800D03*
X324200Y18800D03*
X349600Y18800D03*
X375000Y18800D03*
X400400Y18800D03*
X425800Y18800D03*
X451200Y18800D03*
X476600Y18800D03*
X476600Y171200D03*
X451200Y171200D03*
X425800Y171200D03*
X400400Y171200D03*
X375000Y171200D03*
X349600Y171200D03*
X324200Y171200D03*
X298800Y171200D03*
X273400Y171200D03*
X523400Y588800D03*
X548800Y588800D03*
X574200Y588800D03*
X599600Y588800D03*
X625000Y588800D03*
X650400Y588800D03*
X675800Y588800D03*
X701200Y588800D03*
X726600Y588800D03*
X726600Y741200D03*
X701200Y741200D03*
X675800Y741200D03*
X650400Y741200D03*
X625000Y741200D03*
X599600Y741200D03*
X574200Y741200D03*
X548800Y741200D03*
X523400Y741200D03*
X773400Y588800D03*
X798800Y588800D03*
X824200Y588800D03*
X849600Y588800D03*
X875000Y588800D03*
X900400Y588800D03*
X925800Y588800D03*
X951200Y588800D03*
X976600Y588800D03*
X976600Y741200D03*
X951200Y741200D03*
X925800Y741200D03*
X900400Y741200D03*
X875000Y741200D03*
X849600Y741200D03*
X824200Y741200D03*
X798800Y741200D03*
X773400Y741200D03*
X523400Y398800D03*
X548800Y398800D03*
X574200Y398800D03*
X599600Y398800D03*
X625000Y398800D03*
X650400Y398800D03*
X675800Y398800D03*
X701200Y398800D03*
X726600Y398800D03*
X726600Y551200D03*
X701200Y551200D03*
X675800Y551200D03*
X650400Y551200D03*
X625000Y551200D03*
X599600Y551200D03*
X574200Y551200D03*
X548800Y551200D03*
X523400Y551200D03*
X773400Y398800D03*
X798800Y398800D03*
X824200Y398800D03*
X849600Y398800D03*
X875000Y398800D03*
X900400Y398800D03*
X925800Y398800D03*
X951200Y398800D03*
X976600Y398800D03*
X976600Y551200D03*
X951200Y551200D03*
X925800Y551200D03*
X900400Y551200D03*
X875000Y551200D03*
X849600Y551200D03*
X824200Y551200D03*
X798800Y551200D03*
X773400Y551200D03*
X523400Y208800D03*
X548800Y208800D03*
X574200Y208800D03*
X599600Y208800D03*
X625000Y208800D03*
X650400Y208800D03*
X675800Y208800D03*
X701200Y208800D03*
X726600Y208800D03*
X726600Y361200D03*
X701200Y361200D03*
X675800Y361200D03*
X650400Y361200D03*
X625000Y361200D03*
X599600Y361200D03*
X574200Y361200D03*
X548800Y361200D03*
X523400Y361200D03*
X773400Y208800D03*
X798800Y208800D03*
X824200Y208800D03*
X849600Y208800D03*
X875000Y208800D03*
X900400Y208800D03*
X925800Y208800D03*
X951200Y208800D03*
X976600Y208800D03*
X976600Y361200D03*
X951200Y361200D03*
X925800Y361200D03*
X900400Y361200D03*
X875000Y361200D03*
X849600Y361200D03*
X824200Y361200D03*
X798800Y361200D03*
X773400Y361200D03*
X523400Y18800D03*
X548800Y18800D03*
X574200Y18800D03*
X599600Y18800D03*
X625000Y18800D03*
X650400Y18800D03*
X675800Y18800D03*
X701200Y18800D03*
X726600Y18800D03*
X726600Y171200D03*
X701200Y171200D03*
X675800Y171200D03*
X650400Y171200D03*
X625000Y171200D03*
X599600Y171200D03*
X574200Y171200D03*
X548800Y171200D03*
X523400Y171200D03*
X773400Y18800D03*
X798800Y18800D03*
X824200Y18800D03*
X849600Y18800D03*
X875000Y18800D03*
X900400Y18800D03*
X925800Y18800D03*
X951200Y18800D03*
X976600Y18800D03*
X976600Y171200D03*
X951200Y171200D03*
X925800Y171200D03*
X900400Y171200D03*
X875000Y171200D03*
X849600Y171200D03*
X824200Y171200D03*
X798800Y171200D03*
X773400Y171200D03*
D11*
X437500Y698754D03*
X521050Y620550D03*
X521550Y430550D03*
X437000Y508000D03*
X520000Y240500D03*
X437000Y318754D03*
X526500Y42000D03*
X437000Y127254D03*
X221500Y144000D03*
X191000Y144000D03*
X174000Y50500D03*
X145000Y40000D03*
X50810Y128056D03*
X49754Y139500D03*
X90000Y273500D03*
X89500Y464000D03*
X75000Y655000D03*
X89000Y150500D03*
X461500Y154500D03*
X460000Y340000D03*
X460000Y530000D03*
X460000Y720000D03*
D12*
X461500Y154500D02*
X93000Y154500D01*
X89000Y150500D01*
X493000Y330000D02*
X493000Y520000D01*
X484500Y154500D02*
X461500Y154500D01*
X493000Y163000D02*
X493000Y330000D01*
X493000Y163000D02*
X484500Y154500D01*
X483000Y340000D02*
X460000Y340000D01*
X483000Y340000D02*
X493000Y330000D01*
X483000Y530000D02*
X460000Y530000D01*
X483000Y530000D02*
X493000Y520000D01*
X480000Y720000D02*
X460000Y720000D01*
X480000Y720000D02*
X493000Y707000D01*
X493000Y520000D01*
D11*
X70000Y690000D03*
X70000Y500000D03*
X70000Y310000D03*
D12*
X70000Y690000D02*
X69000Y690000D01*
X61452Y682452D01*
X61452Y491452D01*
X70000Y500000D01*
X61452Y318548D02*
X70000Y310000D01*
X61452Y318548D02*
X61452Y491452D01*
X61452Y318548D02*
X61452Y166055D01*
X77007Y150500D02*
X89000Y150500D01*
X77007Y150500D02*
X61452Y166055D01*
D13*
X127500Y340000D02*
X137500Y350000D01*
X137500Y512500D01*
X172500Y532500D02*
X185000Y545000D01*
X185000Y635000D01*
X182500Y637500D01*
X182500Y680000D01*
D14*
X127500Y340000D03*
X137500Y512500D03*
X172500Y532500D03*
X182500Y680000D03*
D12*
X990000Y462500D02*
X990000Y345000D01*
X987500Y465000D02*
X902500Y550000D01*
X987500Y465000D02*
X990000Y462500D01*
X902500Y360000D02*
X900400Y361200D01*
X902500Y550000D02*
X900400Y551200D01*
X947500Y695000D02*
X902500Y740000D01*
X947500Y695000D02*
X947500Y637500D01*
X990000Y595000D01*
X990000Y467500D01*
X902500Y740000D02*
X900400Y741200D01*
X990000Y467500D02*
X987500Y465000D01*
X460000Y142500D02*
X410000Y142500D01*
X887500Y145000D02*
X900000Y157500D01*
X900000Y170000D01*
X900400Y171200D01*
D14*
X410000Y142500D03*
X485000Y132500D03*
X560000Y125000D03*
X887500Y145000D03*
X990000Y345000D03*
D12*
X470000Y132500D02*
X460000Y142500D01*
X470000Y132500D02*
X485000Y132500D01*
X952500Y310000D02*
X970000Y310000D01*
X990000Y330000D01*
X990000Y345000D01*
X952500Y310000D02*
X902500Y360000D01*
X862500Y537500D02*
X875000Y550000D01*
X760000Y570000D02*
X760000Y625000D01*
X875000Y740000D01*
X875000Y551200D02*
X875000Y550000D01*
X875000Y740000D02*
X875000Y741200D01*
X875000Y360000D02*
X990000Y245000D01*
X990000Y165000D01*
X957500Y132500D01*
X875000Y140000D02*
X875000Y171200D01*
X875000Y360000D02*
X875000Y361200D01*
D14*
X400000Y135000D03*
D12*
X875000Y140000D02*
X882500Y132500D01*
X957500Y132500D01*
X760748Y569252D02*
X760000Y570000D01*
X760748Y569252D02*
X760748Y545959D01*
X769207Y537500D01*
X862500Y537500D01*
X665000Y537500D02*
X652500Y550000D01*
X665000Y537500D02*
X720000Y537500D01*
X740000Y537500D01*
X747500Y615000D02*
X642500Y720000D01*
X650400Y551200D02*
X652500Y550000D01*
X650000Y115000D02*
X637500Y102500D01*
X650000Y115000D02*
X650000Y170000D01*
X650400Y171200D01*
X752500Y260000D02*
X652500Y360000D01*
X752500Y260000D02*
X752500Y122500D01*
X652500Y360000D02*
X650400Y361200D01*
X740000Y417500D02*
X740000Y517500D01*
D14*
X642500Y720000D03*
X350000Y120000D03*
X277500Y102500D03*
X278000Y75000D03*
X637500Y102500D03*
X752500Y122500D03*
X740000Y417500D03*
D12*
X277500Y102500D02*
X270000Y95000D01*
X270000Y84000D02*
X278000Y76000D01*
X278000Y75000D01*
X270000Y84000D02*
X270000Y95000D01*
X740000Y537500D02*
X747500Y545000D01*
X747500Y615000D01*
X720000Y537500D02*
X740000Y517500D01*
X365000Y102500D02*
X367500Y100000D01*
X367500Y70000D01*
X382500Y55000D01*
X450000Y55000D01*
X619500Y85500D02*
X627500Y77500D01*
X625000Y170200D02*
X625000Y171200D01*
X625000Y170200D02*
X619500Y164700D01*
X619500Y85500D01*
X740000Y245000D02*
X635000Y350000D01*
X625000Y360000D01*
X740000Y245000D02*
X740000Y165000D01*
X625000Y360000D02*
X625000Y361200D01*
X617500Y542500D02*
X625000Y550000D01*
X617500Y542500D02*
X617500Y532500D01*
X557500Y472500D01*
X510000Y472500D01*
X510000Y330000D01*
X540000Y300000D01*
X585000Y300000D01*
X635000Y350000D01*
X625000Y550000D02*
X625000Y551200D01*
X505000Y685000D02*
X540000Y720000D01*
X505000Y685000D02*
X505000Y477500D01*
X510000Y472500D01*
D14*
X365000Y102500D03*
X450000Y55000D03*
X627500Y77500D03*
X540000Y720000D03*
D12*
X627500Y77500D02*
X652500Y77500D01*
X740000Y165000D01*
X400000Y360000D02*
X260000Y220000D01*
X260000Y202500D01*
X400000Y360000D02*
X400400Y361200D01*
X400000Y172500D02*
X400400Y171200D01*
X360000Y510000D02*
X400000Y550000D01*
X360000Y510000D02*
X360000Y490000D01*
X400000Y550000D02*
X400400Y551200D01*
X335000Y675000D02*
X400000Y740000D01*
X260000Y660000D02*
X260000Y440000D01*
X400000Y740000D02*
X400400Y741200D01*
X400000Y172500D02*
X391593Y172500D01*
X375965Y188128D02*
X274372Y188128D01*
X375965Y188128D02*
X391593Y172500D01*
X274372Y188128D02*
X260000Y202500D01*
X260000Y660000D02*
X275000Y675000D01*
X335000Y675000D01*
X260000Y440000D02*
X260000Y220000D01*
X340000Y470000D02*
X360000Y490000D01*
X340000Y470000D02*
X290000Y470000D01*
X260000Y440000D01*
X380000Y75000D02*
X382500Y72500D01*
X380000Y75000D02*
X380000Y122500D01*
X385000Y75000D02*
X407500Y75000D01*
X407500Y77500D01*
X440000Y110000D01*
X470000Y110000D01*
X385000Y75000D02*
X382500Y72500D01*
D14*
X382500Y72500D03*
X380000Y122500D03*
X497500Y137500D03*
D12*
X470588Y110588D02*
X470000Y110000D01*
X470588Y110588D02*
X478899Y110588D01*
X497500Y129189D01*
X497500Y137500D01*
X350000Y47500D02*
X270000Y127500D01*
X147500Y357500D02*
X150000Y360000D01*
X147500Y357500D02*
X147500Y345000D01*
X122500Y320000D01*
X150000Y360000D02*
X150400Y361200D01*
X75000Y475000D02*
X150000Y550000D01*
X150400Y551200D01*
X122500Y712500D02*
X150000Y740000D01*
X122500Y712500D02*
X75000Y712500D01*
X150000Y740000D02*
X150400Y741200D01*
D14*
X350000Y47500D03*
X270000Y127500D03*
X122500Y320000D03*
X75000Y475000D03*
X23500Y283000D03*
X75000Y712500D03*
D12*
X146250Y193750D02*
X125000Y172500D01*
X125000Y171200D01*
D14*
X222500Y115000D03*
X240000Y237500D03*
D12*
X233750Y193750D02*
X146250Y193750D01*
X233750Y193750D02*
X240000Y200000D01*
X240000Y237500D01*
D13*
X452500Y495000D02*
X445000Y502500D01*
X445000Y545000D01*
X441500Y548500D01*
X441500Y605000D01*
D14*
X452500Y495000D03*
X441500Y605000D03*
D13*
X507500Y95000D02*
X482500Y70000D01*
X507500Y95000D02*
X507500Y175000D01*
X515000Y182500D01*
X515000Y205000D01*
X503000Y217000D01*
X503000Y236000D01*
D14*
X482500Y70000D03*
X503000Y236000D03*
D13*
X185000Y315000D02*
X185000Y450000D01*
X185000Y315000D02*
X122500Y252500D01*
X190000Y455000D02*
X190000Y640000D01*
X190000Y455000D02*
X185000Y450000D01*
D14*
X110000Y95000D03*
X122500Y252500D03*
X390000Y85000D03*
X185000Y450000D03*
X190000Y640000D03*
D13*
X242500Y610000D02*
X242500Y437500D01*
X215000Y410000D01*
X215000Y257500D01*
D14*
X242500Y437500D03*
X242500Y610000D03*
X427500Y82500D03*
X132500Y92500D03*
X215000Y257500D03*
D13*
X25500Y149000D02*
X12500Y162000D01*
X12500Y467000D01*
X25000Y479500D01*
X390000Y115000D02*
X410000Y95000D01*
X390000Y115000D02*
X390000Y127500D01*
X381500Y136000D01*
X151000Y136000D01*
X127500Y290000D02*
X162500Y325000D01*
X162500Y405000D01*
X157500Y410000D01*
X157500Y462500D01*
X335000Y480000D02*
X335000Y665000D01*
D14*
X25500Y149000D03*
X25000Y479500D03*
X410000Y95000D03*
X125000Y110000D03*
X127500Y290000D03*
X157500Y462500D03*
X335000Y665000D03*
X335000Y480000D03*
D13*
X151000Y136000D02*
X125000Y110000D01*
X250000Y617500D02*
X250000Y672500D01*
X250000Y617500D02*
X250000Y487500D01*
X250000Y617500D02*
X210000Y617500D01*
X210000Y342500D01*
X207500Y340000D01*
D14*
X250000Y487500D03*
X250000Y672500D03*
X446500Y120000D03*
X475000Y272500D03*
X207500Y340000D03*
D13*
X50000Y92500D02*
X77500Y65000D01*
X50000Y92500D02*
X50000Y117500D01*
X32500Y135000D01*
X32500Y217500D01*
X27500Y222500D01*
X32500Y217500D02*
X32500Y415000D01*
X33000Y415500D01*
X33000Y603500D01*
D14*
X365000Y45000D03*
X77500Y65000D03*
X27500Y222500D03*
X32500Y415000D03*
X33000Y603500D03*
D13*
X40000Y160000D02*
X80000Y120000D01*
X40000Y160000D02*
X40000Y254000D01*
X40000Y425000D02*
X50000Y435000D01*
X40000Y425000D02*
X40000Y254000D01*
X40000Y610500D02*
X52000Y622500D01*
X40000Y610500D02*
X40000Y425000D01*
D14*
X80000Y120000D03*
X40000Y254000D03*
X50000Y435000D03*
X52000Y622500D03*
D13*
X340000Y732500D02*
X347500Y740000D01*
X349600Y741200D01*
X477500Y740000D02*
X495000Y722500D01*
X477500Y740000D02*
X476600Y741200D01*
X960000Y725000D02*
X975000Y740000D01*
X976600Y741200D01*
D14*
X495000Y722500D03*
D13*
X235300Y732500D02*
X226600Y741200D01*
X235300Y732500D02*
X340000Y732500D01*
X859458Y751058D02*
X918942Y751058D01*
X919000Y751000D01*
X929000Y751000D01*
X859458Y751058D02*
X849600Y741200D01*
X955000Y725000D02*
X960000Y725000D01*
X955000Y725000D02*
X929000Y751000D01*
X769843Y732612D02*
X760955Y741500D01*
X726900Y741500D01*
X726600Y741200D01*
X841012Y732612D02*
X849600Y741200D01*
X841012Y732612D02*
X769843Y732612D01*
X726600Y741200D02*
X719447Y741200D01*
X611059Y741200D02*
X599600Y741200D01*
X611059Y741200D02*
X620917Y731342D01*
X709589Y731342D01*
X719447Y741200D01*
X175000Y590000D02*
X80000Y685000D01*
X80000Y695000D01*
X50000Y725000D01*
X50000Y740000D01*
X175000Y590000D02*
X175800Y588800D01*
X50000Y740000D02*
X48800Y741200D01*
X545000Y702500D02*
X550000Y707500D01*
X550000Y740000D01*
X548800Y741200D01*
X430000Y592500D02*
X427500Y590000D01*
X430000Y592500D02*
X430000Y615000D01*
X477500Y662500D01*
X427500Y590000D02*
X425800Y588800D01*
X677500Y587500D02*
X682500Y587500D01*
X695000Y575000D01*
X730000Y575000D01*
X732500Y597500D02*
X647500Y682500D01*
X732500Y597500D02*
X737500Y592500D01*
X677500Y587500D02*
X675800Y588800D01*
X732500Y600000D02*
X737500Y605000D01*
X732500Y600000D02*
X732500Y597500D01*
D14*
X545000Y702500D03*
X477500Y662500D03*
X737500Y605000D03*
D13*
X546718Y682500D02*
X541644Y687574D01*
X546718Y682500D02*
X647500Y682500D01*
X545000Y702500D02*
X541644Y699144D01*
X541644Y687574D01*
X730000Y575000D02*
X737500Y582500D01*
X737500Y592500D01*
X90000Y725000D02*
X75000Y740000D01*
X74200Y741200D01*
X547500Y690000D02*
X572500Y715000D01*
X572500Y740000D01*
X574200Y741200D01*
X822500Y742500D02*
X824200Y741200D01*
D14*
X547500Y690000D03*
D13*
X111500Y735500D02*
X111500Y748500D01*
X115500Y752500D01*
X101000Y725000D02*
X90000Y725000D01*
X101000Y725000D02*
X111500Y735500D01*
X300500Y752000D02*
X311300Y741200D01*
X324200Y741200D01*
X336200Y741200D01*
X347500Y752500D01*
X177500Y752500D02*
X115500Y752500D01*
X177500Y752500D02*
X189000Y741000D01*
X201000Y741000D02*
X201200Y741200D01*
X201000Y741000D02*
X189000Y741000D01*
X201200Y741200D02*
X214455Y741200D01*
X225255Y752000D01*
X300500Y752000D01*
X347500Y752500D02*
X427500Y752500D01*
X438500Y741500D01*
X450900Y741500D02*
X451200Y741200D01*
X450900Y741500D02*
X438500Y741500D01*
X451200Y741200D02*
X461200Y741200D01*
X472500Y752500D01*
X550000Y752500D01*
X561300Y741200D02*
X574200Y741200D01*
X561300Y741200D02*
X550000Y752500D01*
X574200Y741200D02*
X587455Y741200D01*
X599313Y753058D01*
X676087Y753058D01*
X684388Y744757D02*
X684388Y744612D01*
X684388Y744757D02*
X676087Y753058D01*
X684388Y744612D02*
X687800Y741200D01*
X701200Y741200D02*
X713700Y741200D01*
X815212Y749788D02*
X822500Y742500D01*
X722288Y749788D02*
X713700Y741200D01*
X722288Y749788D02*
X815212Y749788D01*
X701200Y741200D02*
X687800Y741200D01*
X600000Y587500D02*
X615000Y572500D01*
X665000Y592500D02*
X670000Y597500D01*
X697500Y580000D02*
X725000Y580000D01*
X725000Y587500D01*
X600000Y587500D02*
X599600Y588800D01*
X725000Y587500D02*
X726600Y588800D01*
X850000Y587500D02*
X865000Y572500D01*
X975000Y572500D01*
X975000Y587500D01*
X850000Y587500D02*
X849600Y588800D01*
X975000Y587500D02*
X976600Y588800D01*
X482500Y625000D02*
X477500Y620000D01*
X365000Y572500D02*
X350000Y587500D01*
X349600Y588800D01*
D14*
X482500Y625000D03*
D13*
X670000Y597500D02*
X680000Y597500D01*
X697500Y580000D01*
X652500Y572500D02*
X615000Y572500D01*
X665000Y585000D02*
X665000Y592500D01*
X665000Y585000D02*
X652500Y572500D01*
X422500Y572500D02*
X365000Y572500D01*
X435000Y585000D02*
X435000Y612500D01*
X435000Y585000D02*
X422500Y572500D01*
X442500Y620000D02*
X460000Y620000D01*
X477500Y620000D01*
X442500Y620000D02*
X435000Y612500D01*
X460000Y620000D02*
X476600Y603400D01*
X476600Y588800D01*
X825000Y590000D02*
X840000Y605000D01*
X950000Y605000D01*
X950000Y590000D01*
X825000Y590000D02*
X824200Y588800D01*
X950000Y590000D02*
X951200Y588800D01*
X572500Y625000D02*
X545000Y652500D01*
X572500Y625000D02*
X572500Y590000D01*
X574200Y588800D01*
X687500Y602500D02*
X701200Y588800D01*
X687500Y602500D02*
X595000Y602500D01*
X459500Y603500D02*
X459500Y596462D01*
X451200Y588800D01*
D14*
X545000Y652500D03*
X459500Y603500D03*
D13*
X572500Y625000D02*
X595000Y602500D01*
X547500Y637500D02*
X545000Y640000D01*
X547500Y637500D02*
X547500Y590000D01*
X548800Y588800D01*
D14*
X545000Y640000D03*
D13*
X850000Y552500D02*
X865000Y567500D01*
X975000Y567500D01*
X975000Y552500D01*
X850000Y552500D02*
X849600Y551200D01*
X975000Y552500D02*
X976600Y551200D01*
X615000Y567500D02*
X600000Y552500D01*
X615000Y567500D02*
X720000Y567500D01*
X600000Y552500D02*
X599600Y551200D01*
X725000Y552500D02*
X726600Y551200D01*
X350000Y550000D02*
X350000Y497500D01*
X350000Y550000D02*
X349600Y551200D01*
D14*
X350000Y497500D03*
D13*
X720000Y567500D02*
X725000Y562500D01*
X725000Y552500D01*
X175000Y400000D02*
X165000Y410000D01*
X165000Y562500D01*
X175000Y400000D02*
X175800Y398800D01*
X545000Y512500D02*
X547500Y515000D01*
X547500Y550000D01*
X548800Y551200D01*
X430000Y402500D02*
X427500Y400000D01*
X430000Y402500D02*
X430000Y425000D01*
X477500Y472500D01*
X427500Y400000D02*
X425800Y398800D01*
D14*
X165000Y562500D03*
X545000Y512500D03*
X477500Y472500D03*
D13*
X575000Y550000D02*
X590000Y535000D01*
X600000Y535000D01*
X687500Y562500D02*
X700000Y550000D01*
X575000Y550000D02*
X574200Y551200D01*
X700000Y550000D02*
X701200Y551200D01*
X518750Y561250D02*
X515000Y557500D01*
X572500Y552500D02*
X574200Y551200D01*
D14*
X515000Y557500D03*
D13*
X518750Y561250D02*
X563750Y561250D01*
X572500Y552500D01*
X600000Y535000D02*
X609372Y544372D01*
X609372Y549513D01*
X622359Y562500D01*
X687500Y562500D01*
X600000Y397500D02*
X608750Y388750D01*
X600000Y397500D02*
X599600Y398800D01*
X962500Y385000D02*
X975000Y397500D01*
X976600Y398800D01*
X480000Y427500D02*
X477500Y425000D01*
X480000Y427500D02*
X482500Y430000D01*
X477500Y425000D02*
X477500Y400000D01*
X476600Y398800D01*
X435000Y390000D02*
X435000Y422500D01*
X440000Y427500D01*
X480000Y427500D01*
X350000Y397500D02*
X349600Y398800D01*
D14*
X482500Y430000D03*
D13*
X435000Y390000D02*
X425000Y380000D01*
X367500Y380000D02*
X350000Y397500D01*
X367500Y380000D02*
X425000Y380000D01*
X870000Y385000D02*
X962500Y385000D01*
X838500Y398500D02*
X825000Y385000D01*
X849300Y398500D02*
X849600Y398800D01*
X849300Y398500D02*
X838500Y398500D01*
X849600Y398800D02*
X850100Y398300D01*
X856700Y398300D01*
X870000Y385000D01*
X709788Y395243D02*
X709788Y395641D01*
X703295Y388750D02*
X608750Y388750D01*
X703295Y388750D02*
X709788Y395243D01*
X712947Y398800D02*
X726600Y398800D01*
X712947Y398800D02*
X709788Y395641D01*
X726600Y398800D02*
X755700Y398800D01*
X769500Y385000D01*
X825000Y385000D01*
X831300Y398800D02*
X847500Y415000D01*
X831300Y398800D02*
X824200Y398800D01*
X950000Y400000D02*
X950000Y410000D01*
X950000Y400000D02*
X951200Y398800D01*
X815000Y398500D02*
X798500Y415000D01*
X750000Y415000D01*
X742500Y407500D01*
X823900Y398500D02*
X824200Y398800D01*
X823900Y398500D02*
X815000Y398500D01*
X385000Y460000D02*
X325000Y400000D01*
X324200Y398800D01*
D14*
X545000Y462500D03*
X385000Y460000D03*
D13*
X945000Y415000D02*
X950000Y410000D01*
X945000Y415000D02*
X847500Y415000D01*
X696200Y398800D02*
X680000Y415000D01*
X696200Y398800D02*
X701200Y398800D01*
X707200Y398800D02*
X715900Y407500D01*
X707200Y398800D02*
X701200Y398800D01*
X715900Y407500D02*
X742500Y407500D01*
X560000Y447500D02*
X545000Y462500D01*
X560000Y447500D02*
X560000Y410000D01*
X571200Y398800D01*
X574200Y398800D01*
X586800Y398800D01*
X603000Y415000D02*
X680000Y415000D01*
X603000Y415000D02*
X586800Y398800D01*
X547500Y447500D02*
X545000Y450000D01*
X547500Y447500D02*
X547500Y400000D01*
X548800Y398800D01*
D14*
X545000Y450000D03*
D13*
X615900Y377500D02*
X599600Y361200D01*
X615900Y377500D02*
X720000Y377500D01*
X725000Y362500D02*
X726600Y361200D01*
X452500Y317500D02*
X450000Y320000D01*
X450000Y342500D01*
X467500Y360000D01*
X475000Y360000D01*
X476600Y361200D01*
X242500Y345000D02*
X227500Y360000D01*
X242500Y345000D02*
X242500Y330000D01*
X227500Y360000D02*
X226600Y361200D01*
X532500Y360000D02*
X532500Y350000D01*
X520000Y337500D01*
D14*
X452500Y317500D03*
X242500Y330000D03*
X520000Y337500D03*
D13*
X720000Y377500D02*
X725000Y372500D01*
X725000Y362500D01*
X593800Y361200D02*
X580000Y375000D01*
X593800Y361200D02*
X599600Y361200D01*
X547500Y375000D02*
X532500Y360000D01*
X547500Y375000D02*
X580000Y375000D01*
X912500Y375000D02*
X925000Y362500D01*
X775000Y362500D02*
X775000Y370000D01*
X925000Y362500D02*
X925800Y361200D01*
X775000Y362500D02*
X773400Y361200D01*
X775000Y370000D02*
X780000Y375000D01*
X912500Y375000D01*
X250000Y282500D02*
X177500Y210000D01*
X250000Y282500D02*
X250000Y360000D01*
X177500Y210000D02*
X175800Y208800D01*
X420000Y215000D02*
X425000Y210000D01*
X420000Y215000D02*
X420000Y352500D01*
X412500Y360000D01*
X412500Y365000D01*
X405000Y372500D01*
X425000Y210000D02*
X425800Y208800D01*
X545000Y322500D02*
X547500Y325000D01*
X547500Y360000D01*
X548800Y361200D01*
X592500Y292500D02*
X675000Y210000D01*
X675800Y208800D01*
X835000Y300000D02*
X925000Y210000D01*
X835000Y300000D02*
X835000Y365000D01*
X830000Y370000D01*
X925000Y210000D02*
X925800Y208800D01*
D14*
X250000Y360000D03*
X545000Y322500D03*
X592500Y292500D03*
D13*
X310100Y372500D02*
X298800Y361200D01*
X310100Y372500D02*
X405000Y372500D01*
X798800Y361200D02*
X807600Y370000D01*
X830000Y370000D01*
X112500Y322500D02*
X75000Y360000D01*
X112500Y322500D02*
X112500Y252500D01*
X120000Y245000D01*
X200000Y245000D01*
X200000Y360000D01*
X75000Y360000D02*
X74200Y361200D01*
X200000Y360000D02*
X201200Y361200D01*
X545000Y310000D02*
X562500Y327500D01*
X702500Y360000D02*
X717500Y345000D01*
X810000Y345000D01*
X702500Y360000D02*
X701200Y361200D01*
X610000Y352500D02*
X587500Y352500D01*
X615000Y367500D02*
X620000Y372500D01*
X700000Y370000D02*
X700000Y362500D01*
X701200Y361200D01*
D14*
X545000Y310000D03*
D13*
X810000Y345000D02*
X824200Y359200D01*
X824200Y361200D01*
X700000Y370000D02*
X697500Y372500D01*
X620000Y372500D01*
X615000Y357500D02*
X610000Y352500D01*
X615000Y357500D02*
X615000Y367500D01*
X578800Y361200D02*
X574200Y361200D01*
X578800Y361200D02*
X587500Y352500D01*
X574200Y361200D02*
X573900Y361500D01*
X571500Y361500D01*
X562500Y352500D01*
X562500Y327500D01*
X370000Y200000D02*
X365000Y205000D01*
X370000Y200000D02*
X412500Y200000D01*
X416564Y195936D01*
X850000Y207500D02*
X865000Y192500D01*
X975000Y192500D01*
X975000Y207500D01*
X850000Y207500D02*
X849600Y208800D01*
X975000Y207500D02*
X976600Y208800D01*
X597500Y232500D02*
X545000Y285000D01*
X597500Y232500D02*
X597500Y210000D01*
X599600Y208800D01*
X482500Y215000D02*
X477500Y210000D01*
X482500Y215000D02*
X482500Y265000D01*
X477500Y210000D02*
X476600Y208800D01*
D14*
X545000Y285000D03*
X482500Y265000D03*
D13*
X353400Y205000D02*
X349600Y208800D01*
X353400Y205000D02*
X365000Y205000D01*
X416564Y195936D02*
X463736Y195936D01*
X476600Y208800D01*
X340000Y225000D02*
X325000Y210000D01*
X324200Y208800D01*
X575000Y207500D02*
X590000Y192500D01*
X575000Y207500D02*
X574200Y208800D01*
X700000Y207500D02*
X701200Y208800D01*
X475000Y232500D02*
X452500Y210000D01*
X475000Y232500D02*
X475000Y247500D01*
X452500Y210000D02*
X451200Y208800D01*
D14*
X475000Y247500D03*
D13*
X396345Y225000D02*
X340000Y225000D01*
X396345Y225000D02*
X421345Y200000D01*
X442400Y200000D01*
X451200Y208800D01*
X685000Y192500D02*
X700000Y207500D01*
X685000Y192500D02*
X590000Y192500D01*
X547500Y257500D02*
X545000Y260000D01*
X547500Y257500D02*
X547500Y210000D01*
X548800Y208800D01*
D14*
X545000Y260000D03*
D13*
X775000Y210000D02*
X790000Y225000D01*
X860000Y225000D01*
X875000Y210000D02*
X875000Y208800D01*
X775000Y210000D02*
X773400Y208800D01*
X860000Y225000D02*
X875000Y210000D01*
X615000Y172500D02*
X600000Y172500D01*
X615000Y172500D02*
X615000Y177500D01*
X620000Y182500D01*
X665000Y167500D02*
X670000Y162500D01*
X720000Y162500D01*
X600000Y172500D02*
X599600Y171200D01*
X850000Y172500D02*
X865000Y187500D01*
X975000Y187500D01*
X975000Y172500D01*
X850000Y172500D02*
X849600Y171200D01*
X975000Y172500D02*
X976600Y171200D01*
X226600Y171200D02*
X225000Y172500D01*
D14*
X160000Y182500D03*
X475000Y120000D03*
D13*
X215000Y182500D02*
X160000Y182500D01*
X215000Y182500D02*
X225000Y172500D01*
X653041Y182500D02*
X665000Y170541D01*
X653041Y182500D02*
X620000Y182500D01*
X665000Y170541D02*
X665000Y167500D01*
X720000Y162500D02*
X726600Y169100D01*
X726600Y171200D01*
X540000Y187500D02*
X525000Y172500D01*
X675000Y172500D02*
X675000Y180000D01*
X525000Y172500D02*
X523400Y171200D01*
X675000Y172500D02*
X675800Y171200D01*
D14*
X363500Y174000D03*
D13*
X357500Y180000D01*
X295455Y180000D02*
X290212Y174757D01*
X295455Y180000D02*
X357500Y180000D01*
X276957Y174757D02*
X273400Y171200D01*
X276957Y174757D02*
X290212Y174757D01*
X667500Y187500D02*
X675000Y180000D01*
X667500Y187500D02*
X540000Y187500D01*
X175800Y18800D02*
X166200Y18800D01*
X152500Y32500D01*
X152500Y62500D01*
X50000Y165000D01*
X50000Y170000D01*
X48800Y171200D01*
X260000Y35000D02*
X400000Y35000D01*
X255000Y40000D02*
X255000Y127500D01*
X681500Y18500D02*
X797500Y134500D01*
X797500Y147500D02*
X797500Y170000D01*
X797500Y147500D02*
X797500Y134500D01*
X681288Y18800D02*
X681500Y18500D01*
X681288Y18800D02*
X675800Y18800D01*
X797500Y170000D02*
X798800Y171200D01*
X797500Y147500D02*
X925000Y20000D01*
X925800Y18800D01*
X675800Y18800D02*
X667700Y18800D01*
X505000Y62500D02*
X470000Y62500D01*
X505000Y62500D02*
X525000Y82500D01*
D14*
X255000Y127500D03*
D13*
X525000Y82500D02*
X604000Y82500D01*
X260000Y35000D02*
X255000Y40000D01*
X400000Y35000D02*
X416200Y18800D01*
X425800Y18800D01*
X426300Y18800D01*
X470000Y62500D01*
X604000Y82500D02*
X667700Y18800D01*
X548800Y106300D02*
X525000Y82500D01*
X548800Y106300D02*
X548800Y171200D01*
X180800Y18800D02*
X175800Y18800D01*
X180800Y18800D02*
X197000Y35000D01*
X260000Y35000D01*
X726800Y19000D02*
X761000Y19000D01*
X726800Y19000D02*
X726600Y18800D01*
X761000Y19000D02*
X770000Y10000D01*
X840800Y10000D01*
X960000Y35000D02*
X975000Y20000D01*
X960000Y35000D02*
X940000Y35000D01*
X935000Y30000D02*
X935000Y15000D01*
X930000Y10000D01*
X840800Y10000D01*
X975000Y20000D02*
X976600Y18800D01*
X512500Y55000D02*
X477500Y20000D01*
X512500Y55000D02*
X512500Y60000D01*
X522500Y70000D02*
X530000Y77500D01*
X522500Y70000D02*
X512500Y60000D01*
X530000Y77500D02*
X590000Y77500D01*
X599500Y68000D02*
X599500Y18857D01*
X477500Y20000D02*
X476600Y18800D01*
X599500Y18857D02*
X599600Y18800D01*
X197500Y27500D02*
X192500Y22500D01*
X197500Y27500D02*
X220000Y27500D01*
X225000Y20000D02*
X226600Y18800D01*
X680000Y10000D02*
X692500Y22500D01*
D14*
X522500Y70000D03*
D13*
X108400Y10000D02*
X99600Y18800D01*
X108400Y10000D02*
X190000Y10000D01*
X192500Y12500D01*
X192500Y22500D01*
X220000Y27500D02*
X225000Y22500D01*
X225000Y20000D01*
X590000Y77500D02*
X599500Y68000D01*
X697643Y27388D02*
X704888Y27388D01*
X692755Y22500D02*
X692500Y22500D01*
X692755Y22500D02*
X697643Y27388D01*
X713700Y18800D02*
X726600Y18800D01*
X713700Y18800D02*
X705000Y27500D01*
X935000Y30000D02*
X940000Y35000D01*
X849600Y18800D02*
X840800Y10000D01*
X608400Y10000D02*
X599600Y18800D01*
X608400Y10000D02*
X680000Y10000D01*
X704888Y27388D02*
X705000Y27500D01*
X200000Y17500D02*
X200000Y10000D01*
X200000Y17500D02*
X201200Y18800D01*
X88000Y5000D02*
X74200Y18800D01*
X195000Y5000D02*
X200000Y10000D01*
X195000Y5000D02*
X88000Y5000D01*
X340000Y10000D02*
X430000Y10000D01*
X438800Y18800D02*
X451200Y18800D01*
X438800Y18800D02*
X430000Y10000D01*
X451200Y18800D02*
X463700Y18800D01*
X214455Y18800D02*
X201200Y18800D01*
X214455Y18800D02*
X223043Y10212D01*
X310212Y10212D02*
X319000Y19000D01*
X310212Y10212D02*
X223043Y10212D01*
X319000Y19000D02*
X324000Y19000D01*
X324200Y18800D01*
X331200Y18800D01*
X340000Y10000D01*
X463700Y18800D02*
X472288Y10212D01*
X552357Y10212D02*
X561287Y19142D01*
X552357Y10212D02*
X472288Y10212D01*
X573858Y19142D02*
X574200Y18800D01*
X573858Y19142D02*
X561287Y19142D01*
X595817Y5936D02*
X690000Y5936D01*
X595817Y5936D02*
X582753Y19000D01*
X574400Y19000D02*
X574200Y18800D01*
X574400Y19000D02*
X582753Y19000D01*
X690000Y5936D02*
X701200Y17136D01*
X701200Y18800D01*
X310000Y20000D02*
X300000Y20000D01*
X298800Y18800D01*
X545000Y70000D02*
X547500Y67500D01*
X547500Y20000D01*
X548800Y18800D01*
D14*
X545000Y70000D03*
D13*
X317500Y27500D02*
X310000Y20000D01*
X391700Y27500D02*
X400400Y18800D01*
X391700Y27500D02*
X317500Y27500D01*
X775000Y20000D02*
X790000Y35000D01*
X870000Y35000D01*
X875000Y30000D02*
X875000Y18800D01*
X775000Y20000D02*
X773400Y18800D01*
X522500Y60000D02*
X517500Y55000D01*
X517500Y25000D01*
X522500Y20000D01*
X523400Y18800D01*
D14*
X522500Y60000D03*
D13*
X870000Y35000D02*
X875000Y30000D01*
X452500Y307500D02*
X445000Y315000D01*
X445000Y355000D01*
X441000Y359000D01*
X441000Y415000D01*
D14*
X452500Y307500D03*
X441000Y415000D03*
D13*
X100000Y95000D02*
X85000Y80000D01*
X85000Y60000D01*
X5000Y60000D02*
X5000Y470000D01*
X10000Y475000D02*
X25000Y490000D01*
X10000Y475000D02*
X5000Y470000D01*
X115000Y485000D02*
X115000Y360000D01*
X115000Y485000D02*
X125000Y495000D01*
X10000Y705000D02*
X30000Y725000D01*
X10000Y705000D02*
X10000Y475000D01*
D14*
X100000Y95000D03*
X25000Y490000D03*
X100000Y350000D03*
X125000Y495000D03*
X30000Y725000D03*
D13*
X5000Y60000D02*
X15000Y50000D01*
X75000Y50000D01*
X85000Y60000D01*
X105000Y350000D02*
X115000Y360000D01*
X105000Y350000D02*
X100000Y350000D01*
M02*
